<?xml version="1.0" standalone="no"?>
<!DOCTYPE svg PUBLIC "-//W3C//DTD SVG 1.1//EN" "http://www.w3.org/Graphics/SVG/1.1/DTD/svg11.dtd" >
<svg xmlns="http://www.w3.org/2000/svg" xmlns:xlink="http://www.w3.org/1999/xlink" version="1.1">
<metadata>
Created by FontForge 20201107 at Tue Dec 13 17:12:09 2011
 By Unknown
v4.0; Copyright 1995 Garrett Boge, LetterPerfect Fonts; ALL RIGHTS RESERVED
</metadata>
<defs>
<font id="Didot$LPW01-Display" horiz-adv-x="689" >
  <font-face 
    font-family="Didot$LPW01-Display"
    font-weight="400"
    font-stretch="normal"
    units-per-em="1000"
    panose-1="2 0 0 0 0 0 0 0 0 0"
    ascent="706"
    descent="-294"
    x-height="384"
    cap-height="672"
    bbox="-112 -286 1030 895"
    underline-thickness="30"
    underline-position="-130"
    unicode-range="U+000D-2122"
  />
<missing-glyph horiz-adv-x="0" 
 />
    <glyph glyph-name=".notdef" horiz-adv-x="0" 
 />
    <glyph glyph-name=".null" horiz-adv-x="0" 
 />
    <glyph glyph-name="uni000D" unicode="&#xd;" horiz-adv-x="0" 
 />
    <glyph glyph-name="space" unicode=" " horiz-adv-x="190" 
 />
    <glyph glyph-name="exclam" unicode="!" horiz-adv-x="215" 
d="M136 55q0 -26 -14.5 -44t-34.5 -18t-34.5 18t-14.5 44t14.5 44t34.5 18t34.5 -18t14.5 -44zM141 618q0 -45 -7.5 -83t-13.5 -82q-4 -29 -7.5 -68t-7.5 -82t-7 -86t-5 -80h-14q-2 37 -4.5 80.5t-5.5 86t-6.5 82t-7.5 68.5q-5 45 -12.5 82t-7.5 78q0 26 17 40.5t37 14.5
t36 -12.5t16 -38.5z" />
    <glyph glyph-name="quotedbl" unicode="&#x22;" horiz-adv-x="319" 
d="M82 445h-17l-28 172q-2 14 -1.5 24.5t7.5 18.5q5 5 12.5 8.5t15.5 3.5t17 -4t11 -8q6 -10 7.5 -20t-0.5 -23zM209 445h-17l-28 172q-2 14 -1.5 24.5t7.5 18.5q5 5 12.5 8.5t15.5 3.5t17 -4t11 -8q6 -10 7.5 -20t-0.5 -23z" />
    <glyph glyph-name="numbersign" unicode="#" horiz-adv-x="545" 
d="M336 369h-143l-19 -132h143zM484 369h-100l-19 -132h94v-42h-99l-28 -195h-48l27 195h-142l-28 -195h-49l28 195h-94v42h99l19 132h-94v42h100l27 194h49l-28 -194h144l27 194h49l-28 -194h94v-42z" />
    <glyph glyph-name="dollar" unicode="$" horiz-adv-x="502" 
d="M389 119q0 23 -5.5 42.5t-21.5 36.5t-46.5 33.5t-79.5 34.5v-264q80 3 116.5 34t36.5 83zM212 604q-20 -2 -41.5 -8.5t-39.5 -19t-29.5 -31.5t-11.5 -45q0 -41 27 -72.5t95 -57.5v234zM459 166q0 -34 -14.5 -65t-43 -56t-70 -40.5t-95.5 -17.5v-51h-24v51q-40 1 -74.5 13
t-60 30.5t-40 42t-14.5 49.5q0 39 19.5 59t46.5 20q23 0 37 -16.5t14 -36.5t-15 -33t-30 -13q-18 0 -32 9l-2 -2q-2 -16 6.5 -34t27 -34t48 -27t69.5 -12v272q-47 17 -80 35t-53 38.5t-29 46t-9 57.5q0 36 13 65.5t36.5 51.5t54.5 35t67 15v54h24v-53q28 -1 58 -7.5t55 -21
t41 -37.5t16 -57q0 -28 -15.5 -43.5t-35.5 -15.5q-21 0 -35 9.5t-14 32.5q0 22 14.5 31.5t27.5 9.5t27 -9l3 1q0 18 -10 34.5t-29 29t-45 20.5t-58 9v-243q43 -15 83.5 -31t71.5 -38.5t49.5 -53t18.5 -73.5z" />
    <glyph glyph-name="percent" unicode="%" horiz-adv-x="688" 
d="M568 168q0 53 -6.5 85.5t-18 50t-27 23.5t-33.5 6q-15 0 -30 -6t-27 -23t-19 -48.5t-7 -82.5q0 -56 5.5 -90.5t15.5 -53.5t24.5 -25.5t32.5 -6.5t34 6.5t28.5 25.5t20 52t7.5 87zM247 505q0 53 -6.5 85.5t-18 50t-27 23.5t-33.5 6q-15 0 -30 -6t-27 -23t-19 -48.5
t-7 -82.5q0 -56 5.5 -90.5t15.5 -53.5t24.5 -25.5t32.5 -6.5t34 6.5t28.5 25.5t20 52t7.5 87zM642 174q0 -42 -15 -77t-39 -59.5t-53 -38.5t-57 -14t-55.5 14t-49 38.5t-34.5 58t-13 73.5q0 36 13.5 68t35.5 56t50 38t58 14q28 0 56.5 -12.5t51.5 -35.5t37 -54.5t14 -68.5z
M582 672l-480 -672h-34l480 672h34zM321 511q0 -42 -15 -77t-39 -59.5t-53 -38.5t-57 -14t-55.5 14t-49 38.5t-34.5 58t-13 73.5q0 36 13.5 68t35.5 56t50 38t58 14q28 0 56.5 -12.5t51.5 -35.5t37 -54.5t14 -68.5z" />
    <glyph glyph-name="ampersand" unicode="&#x26;" horiz-adv-x="634" 
d="M410 87q-24 30 -51 67t-54.5 76.5t-54 80t-48.5 77.5q-51 -30 -83.5 -64.5t-32.5 -84.5q0 -58 22 -100t52.5 -69t63 -40t54.5 -13q40 0 73.5 20.5t58.5 49.5zM355 551q0 40 -26.5 65t-61.5 25q-36 0 -52.5 -20.5t-16.5 -44.5q0 -26 11.5 -49t37.5 -60q5 -7 9.5 -13.5
t9.5 -13.5q36 22 62.5 47.5t26.5 63.5zM643 46q-11 -27 -37 -42t-52 -15q-29 0 -50 9t-47 35q-8 8 -17.5 19t-20.5 24q-35 -38 -84.5 -62t-113.5 -24q-40 0 -75.5 14t-62.5 39t-42.5 59t-15.5 74q0 36 14.5 68.5t38.5 60.5t54.5 52t62.5 43q-5 8 -9.5 16.5t-9.5 16.5
q-27 48 -27 97q0 22 9 44t25 40t37.5 29t47.5 11q20 0 38 -7.5t32 -21t22 -31.5t8 -39q0 -36 -20 -64.5t-74 -61.5q43 -63 90.5 -133t94.5 -133q13 32 19.5 66t6.5 77v106h-70v12h153v-12h-70v-123q0 -30 -7 -66t-23 -72q19 -25 37 -47t35 -41q16 -17 31 -25.5t26 -8.5
q13 0 21.5 5.5t16.5 16.5z" />
    <glyph glyph-name="quotesingle" unicode="'" horiz-adv-x="180" 
d="M106 617l-24 -172h-17l-28 172q-2 14 -1.5 24.5t7.5 18.5q5 5 12.5 8.5t15.5 3.5t17 -4t11 -8q6 -10 7.5 -20t-0.5 -23z" />
    <glyph glyph-name="parenleft" unicode="(" horiz-adv-x="259" 
d="M220 731q-28 -36 -49 -67t-35 -73t-21 -101.5t-7 -150.5q0 -80 4 -135.5t16 -99t33.5 -81.5t56.5 -82l-9 -9q-43 46 -76 90t-55.5 92t-34 102.5t-11.5 122.5q0 65 10 117.5t31.5 99t55.5 90.5t81 93z" />
    <glyph glyph-name="parenright" unicode=")" horiz-adv-x="259" 
d="M195 339q0 -68 -11.5 -122.5t-34 -102.5t-55.5 -92t-76 -90l-9 9q34 44 55.5 82t33.5 81.5t16.5 99t4.5 135.5q0 91 -7 150.5t-21 101.5t-35 73t-49 67l10 8q47 -49 81 -93t55.5 -90.5t31.5 -99t10 -117.5z" />
    <glyph glyph-name="asterisk" unicode="*" horiz-adv-x="365" 
d="M304 441q-8 -12 -19 -16t-22 4q-17 11 -31 27.5t-41 39.5q-2 1 -4.5 2t-4.5 -1q-5 -1 -4 -11q6 -35 13.5 -54.5t7.5 -38.5q0 -31 -30 -31q-14 0 -22 8.5t-8 22.5q0 19 7 38.5t13 54.5v5.5t-2 4.5q-5 3 -10 -2q-28 -23 -41.5 -39t-30.5 -26q-11 -8 -22 -4.5t-19 16.5
q-7 11 -3.5 22.5t15.5 19.5q15 9 36 12t55 16q8 2 8 7q0 6 -7 7q-35 13 -56 16t-36 12q-12 8 -16 19t4 24q7 12 18.5 15.5t22.5 -3.5q16 -10 30 -26.5t40 -39.5q3 -2 6 -3t5 1q4 3 3 10q-6 36 -13 55t-7 38q0 31 30 31q14 0 22 -8.5t8 -22.5q0 -19 -7 -38t-14 -55
q-2 -10 3 -11q3 -2 8 1q29 23 43 40t31 28q11 7 22.5 4t18.5 -16q7 -12 3.5 -24t-15.5 -19q-8 -5 -17 -7.5t-20 -5t-24.5 -6t-29.5 -9.5q-8 -1 -8 -7q0 -5 7 -6q17 -7 30.5 -10.5t24.5 -6t20 -5t17 -7.5q12 -7 16 -18.5t-4 -23.5z" />
    <glyph glyph-name="plus" unicode="+" horiz-adv-x="538" 
d="M481 276h-194v-194h-52v194h-194v52h194v194h52v-194h194v-52z" />
    <glyph glyph-name="comma" unicode="," horiz-adv-x="237" 
d="M153 13q0 -57 -28 -90.5t-76 -44.5l-3 12q34 9 59.5 32.5t25.5 66.5q0 7 -1 14.5t-3 12.5h-2q-7 -7 -16.5 -12.5t-19.5 -5.5q-22 0 -36 15t-14 40t16 41t36 16q32 0 47 -25.5t15 -71.5z" />
    <glyph glyph-name="hyphen" unicode="-" horiz-adv-x="374" 
d="M300 276h-270v52h270v-52z" />
    <glyph glyph-name="period" unicode="." horiz-adv-x="211" 
d="M136 57q0 -26 -14.5 -44t-34.5 -18t-34.5 18t-14.5 44t14.5 44t34.5 18t34.5 -18t14.5 -44z" />
    <glyph glyph-name="slash" unicode="/" horiz-adv-x="421" 
d="M409 672l-380 -672h-34l380 672h34z" />
    <glyph glyph-name="zero" unicode="0" horiz-adv-x="509" 
d="M354 295q0 75 -3.5 132.5t-14.5 97.5t-33 60.5t-59 20.5q-33 0 -53.5 -24.5t-32 -65.5t-16 -93.5t-4.5 -108.5q0 -93 5 -153.5t18 -96t34 -49.5t53 -14q25 0 45 12.5t33.5 45t20.5 89.5t7 147zM447 294q0 -60 -17 -115t-45.5 -97.5t-65 -67.5t-75.5 -25q-44 0 -80.5 25
t-63 67t-41 97.5t-14.5 116.5q0 64 16 122.5t44 103t64.5 71t78.5 26.5q43 0 79.5 -26.5t63 -71.5t41.5 -103.5t15 -122.5z" />
    <glyph glyph-name="one" unicode="1" horiz-adv-x="346" 
d="M293 0h-262v12h83v555l-94 -200l-11 5l110 233h79v-593h95v-12z" />
    <glyph glyph-name="two" unicode="2" horiz-adv-x="489" 
d="M410 438q0 -32 -11.5 -59.5t-30 -51.5t-41.5 -44.5t-45 -38.5q-23 -18 -47 -37.5t-46.5 -39.5t-43 -40t-35.5 -38l1 -3q30 4 65 4.5t69 -1t64.5 -5.5t52.5 -9l23 56l13 -4l-47 -134q-34 13 -76.5 19.5t-86 6.5t-84.5 -6.5t-72 -18.5l-5 4q15 27 41 59.5t56 65.5t59.5 65
t52.5 59q47 57 67 110.5t20 106.5q0 26 -7 50.5t-21.5 43.5t-38 30.5t-56.5 11.5q-32 0 -59 -13t-46 -32.5t-29.5 -43t-10.5 -45.5q0 -46 38 -46q13 0 20.5 6.5t24.5 6.5q19 0 31.5 -13.5t12.5 -35.5q0 -23 -18 -37.5t-46 -14.5q-14 0 -28.5 6.5t-26 20.5t-18.5 35.5
t-7 50.5q0 34 12.5 64.5t36 53.5t56 36.5t71.5 13.5q45 0 81 -14.5t61.5 -38.5t39.5 -56t14 -66z" />
    <glyph glyph-name="three" unicode="3" horiz-adv-x="488" 
d="M419 162q0 -36 -17 -68.5t-47.5 -56.5t-72.5 -38t-91 -14q-38 0 -69 12.5t-52.5 32.5t-33.5 45t-12 51q0 36 18 55t40 19q15 0 26 -5.5t17.5 -13.5t9.5 -17.5t3 -18.5q0 -15 -6.5 -23t-15.5 -15q-11 -8 -17.5 -18t-6.5 -27q0 -12 8 -23.5t21.5 -20.5t30.5 -15t35 -6
q63 0 104.5 42.5t41.5 128.5q0 74 -34.5 112t-87.5 41q-29 2 -46 -0.5t-34 -6.5l-3 11q31 9 62.5 20.5t57.5 26.5q43 26 56.5 58.5t13.5 71.5q0 56 -29.5 80.5t-83.5 24.5q-18 0 -34.5 -4.5t-29 -12.5t-20.5 -18.5t-8 -22.5q0 -15 4 -23t14 -16q7 -5 12.5 -12t5.5 -22
q0 -17 -13.5 -27t-30.5 -10q-22 0 -37.5 18t-15.5 48q0 27 15 48.5t38 36t50.5 22t53.5 7.5q38 0 72.5 -9t60.5 -26.5t41.5 -42.5t15.5 -57q0 -24 -7.5 -42.5t-20 -32.5t-29.5 -24.5t-35 -17.5q-23 -9 -49 -17t-49 -14v-2q29 0 57.5 -6t60.5 -21q17 -8 33.5 -21.5
t29.5 -32.5t21 -42t8 -49z" />
    <glyph glyph-name="four" unicode="4" horiz-adv-x="473" 
d="M421 175h-69v-163h67v-12h-209v12h58v163h-268l-3 5l210 425h124l-312 -414l2 -3h247v157l84 37v-194h69v-13z" />
    <glyph glyph-name="five" unicode="5" horiz-adv-x="465" 
d="M400 213q0 -47 -16 -88.5t-45.5 -72.5t-70 -49t-89.5 -18q-34 0 -61 11.5t-46 31t-29.5 43.5t-10.5 50q0 20 5.5 33.5t13.5 22t17 12t16 3.5q17 0 28 -5.5t17.5 -13.5t9 -17.5t2.5 -18.5q0 -15 -8 -23.5t-19 -16.5t-17.5 -16t-6.5 -25q0 -12 7.5 -22.5t19.5 -19t27 -13
t29 -4.5q67 0 106.5 51.5t39.5 157.5q0 46 -9.5 84t-26.5 65t-40.5 42t-51.5 15q-38 0 -67 -24.5t-45 -58.5l-13 3l5 274l5 4q24 -9 56.5 -15t69.5 -6q32 0 66.5 5t68.5 19l5 -4q-15 -26 -41 -46.5t-60 -32.5t-75 -15.5t-84 3.5l-2 -153l3 -1q20 26 47.5 43.5t62.5 17.5
q41 0 78.5 -15t66 -43t45.5 -67t17 -87z" />
    <glyph glyph-name="six" unicode="6" horiz-adv-x="507" 
d="M370 192q0 92 -22 137t-76 45q-29 0 -53.5 -15t-42.5 -40.5t-28 -60t-10 -72.5q0 -90 30.5 -138t86.5 -48q51 0 83 46t32 146zM454 200q0 -54 -18 -93.5t-46.5 -66t-64 -39.5t-70.5 -13q-38 0 -75.5 21.5t-67.5 61.5t-48.5 96.5t-18.5 127.5q0 83 23 143t58.5 99t79 58
t85.5 19q62 0 98 -30t36 -80q0 -26 -16 -45.5t-38 -19.5t-37 13.5t-15 37.5q0 15 8 25.5t20 21.5q12 10 12 23q0 21 -19.5 31.5t-51.5 10.5q-39 0 -69 -21.5t-47 -59.5q-9 -20 -16.5 -49.5t-13 -62.5t-8 -68t-1.5 -66l3 -1q21 48 54 81t88 33q38 0 70.5 -15t56 -40.5
t36.5 -60t13 -72.5z" />
    <glyph glyph-name="seven" unicode="7" horiz-adv-x="399" 
d="M383 609q-12 -32 -25 -65.5t-27 -69.5q-23 -59 -45 -124.5t-42 -129t-37 -121t-29 -99.5h-126q71 124 145.5 256t136.5 261l-2 3q-29 -8 -66.5 -11t-76.5 -3q-48 0 -92.5 4t-73.5 10l-9 -66l-12 1l16 155q36 -8 83 -13t98 -5q45 0 90 5t89 16z" />
    <glyph glyph-name="eight" unicode="8" horiz-adv-x="494" 
d="M390 112q0 48 -27 79.5t-65 54.5q-32 19 -52.5 30.5t-44.5 22.5q-27 -10 -49 -21t-38.5 -27t-25.5 -39.5t-9 -58.5q0 -31 8.5 -58.5t27.5 -48.5t48.5 -33t70.5 -12q28 0 56 7.5t50.5 21.5t36 35t13.5 47zM369 475q0 60 -33 93.5t-94 33.5q-20 0 -43 -4.5t-43 -15
t-33.5 -28t-13.5 -44.5t8.5 -46t28.5 -35.5t52.5 -34t80.5 -41.5q47 20 68.5 48.5t21.5 73.5zM446 168q0 -43 -16.5 -76.5t-46.5 -56t-71.5 -34.5t-90.5 -12q-38 0 -72.5 10.5t-60.5 30.5t-42 48.5t-16 63.5q0 36 13 62t34.5 45t49.5 32.5t59 24.5q-33 17 -58 32t-41 31.5
t-24 36.5t-8 48q0 37 15.5 67t41 50t59.5 31t72 11q41 0 73.5 -11.5t55 -31t34 -44t11.5 -51.5q0 -47 -32 -78.5t-91 -50.5q27 -13 54 -29t48.5 -37t35.5 -48.5t14 -63.5z" />
    <glyph glyph-name="nine" unicode="9" horiz-adv-x="507" 
d="M349 418q0 91 -31 138.5t-87 47.5q-51 0 -82.5 -44.5t-31.5 -144.5q0 -92 21 -134.5t74 -42.5q25 0 50 14t44 38t31 57t12 71zM437 322q0 -85 -22 -147.5t-57 -104t-78.5 -62t-87.5 -20.5q-27 0 -52.5 9.5t-45 26t-31.5 38.5t-12 47q0 29 15 46.5t37 17.5q20 0 35.5 -14
t15.5 -38q0 -25 -17 -37q-8 -6 -14.5 -13.5t-6.5 -18.5q0 -21 25 -36t55 -15q41 0 71.5 24.5t47.5 60.5q9 20 16.5 49.5t12.5 62.5t7 68t1 66l-3 1q-20 -48 -57.5 -78.5t-83.5 -30.5q-39 0 -70.5 16t-54.5 42.5t-35.5 59.5t-12.5 67q0 54 17.5 93t46 64.5t63.5 38t71 12.5
q41 0 78 -20t65 -57.5t44.5 -92.5t16.5 -125z" />
    <glyph glyph-name="colon" unicode=":" horiz-adv-x="211" 
d="M136 57q0 -26 -14.5 -44t-34.5 -18t-34.5 18t-14.5 44t14.5 44t34.5 18t34.5 -18t14.5 -44zM136 325q0 -26 -14.5 -44t-34.5 -18t-34.5 18t-14.5 44t14.5 44t34.5 18t34.5 -18t14.5 -44z" />
    <glyph glyph-name="semicolon" unicode=";" horiz-adv-x="227" 
d="M153 13q0 -57 -28 -90.5t-76 -44.5l-3 12q34 9 59.5 32.5t25.5 66.5q0 7 -1 14.5t-3 12.5h-2q-7 -7 -16.5 -12.5t-19.5 -5.5q-22 0 -36 15t-14 40t16 41t36 16q32 0 47 -25.5t15 -71.5zM136 325q0 -26 -14.5 -44t-34.5 -18t-34.5 18t-14.5 44t14.5 44t34.5 18t34.5 -18
t14.5 -44z" />
    <glyph glyph-name="less" unicode="&#x3c;" horiz-adv-x="538" 
d="M481 75l-440 201v52l440 201v-54l-378 -173l378 -173v-54z" />
    <glyph glyph-name="equal" unicode="=" horiz-adv-x="537" 
d="M471 191h-430v52h430v-52zM471 361h-430v52h430v-52z" />
    <glyph glyph-name="greater" unicode="&#x3e;" horiz-adv-x="538" 
d="M481 276l-440 -201v54l378 173l-378 173v54l440 -201v-52z" />
    <glyph glyph-name="question" unicode="?" horiz-adv-x="340" 
d="M297 488q0 -44 -12 -77t-31.5 -56t-44 -34.5t-48.5 -11.5q-27 0 -41 7t-28 16l-3 -2v-205q19 -3 32 -21.5t13 -44.5q0 -27 -15.5 -46t-36.5 -19t-36.5 19t-15.5 46q0 26 13.5 45t32.5 22v235l6 2q17 -17 33.5 -28.5t34.5 -11.5q15 0 27.5 8.5t21 29t13.5 55.5t5 88
q0 25 -3.5 53.5t-12.5 52.5t-24 39.5t-37 15.5q-20 0 -27 -7.5t-7 -17.5q0 -9 2.5 -15.5t6 -11.5t6 -11t2.5 -13q0 -18 -13 -26t-25 -8q-20 0 -29.5 15t-9.5 32t8.5 31t22 24.5t30 16t33.5 5.5q37 0 66.5 -17t49.5 -44.5t30.5 -61.5t10.5 -68z" />
    <glyph glyph-name="at" unicode="@" horiz-adv-x="697" 
d="M449 378q0 21 -9.5 35.5t-32.5 14.5q-16 0 -38 -12.5t-42 -36t-34 -57.5t-14 -77t16.5 -60.5t39.5 -17.5q19 0 39.5 17t37 46t27 67t10.5 81zM661 348q0 -42 -11 -81.5t-32.5 -69.5t-52 -48t-69.5 -18q-35 0 -60 15t-25 54h-2q-3 -6 -12.5 -17.5t-24 -23t-32 -20
t-35.5 -8.5q-9 0 -23.5 3t-29 14t-24.5 34t-10 63q0 43 14 82.5t38 70t56 48.5t68 18q26 0 43 -15.5t25 -35.5h1l10 39h64l-62 -237q-3 -11 -3 -25q0 -10 7.5 -22t30.5 -12q30 0 54 17.5t41.5 45t26.5 61.5t9 67q0 45 -18.5 90t-53.5 81t-87 58.5t-118 22.5
q-58 0 -108 -21.5t-87.5 -62.5t-59 -100.5t-21.5 -135.5q0 -49 21 -98t58.5 -88t90 -63.5t115.5 -24.5q66 0 110 16t80 36l9 -17q-54 -31 -104.5 -43t-93.5 -12q-90 0 -155 30t-107.5 75t-62.5 98t-20 100q0 74 26 135t71.5 104.5t106.5 67.5t131 24q62 0 116.5 -20.5
t94.5 -56.5t63 -86t23 -108z" />
    <glyph glyph-name="A" unicode="A" horiz-adv-x="579" 
d="M349 226l-112 307h-3l-109 -307h224zM600 0h-243v12h70l-73 200h-234l-70 -200h70v-12h-153v12h69l238 675h9l248 -675h69v-12z" />
    <glyph glyph-name="B" unicode="B" horiz-adv-x="560" 
d="M425 188q0 71 -32.5 114t-97.5 43h-102v-333h88q39 0 66.5 13t44.5 36t25 55.5t8 71.5zM402 516q0 31 -7 57t-22.5 45.5t-39 30.5t-56.5 11h-84v-303h74q31 0 56 6.5t42.5 23.5t27 48t9.5 81zM526 168q0 -29 -10 -58.5t-38 -54t-78 -40t-130 -15.5h-249v12h70v648h-70v12
h262q52 0 93 -15t69.5 -40t43 -56t14.5 -64q0 -35 -14 -60t-36.5 -41.5t-51.5 -26.5t-60 -15v-2q33 -6 66 -21t59.5 -38.5t43 -54.5t16.5 -70z" />
    <glyph glyph-name="C" unicode="C" horiz-adv-x="627" 
d="M570 8h-7q-20 21 -55.5 25.5t-70.5 -12.5q-25 -12 -56.5 -23t-60.5 -11q-56 0 -107.5 26t-91 72t-63 109t-23.5 137q0 89 29.5 155t74 110t95.5 66t95 22q40 0 70.5 -13t53.5 -26q24 -14 50 -11.5t40 18.5h7v-201h-11q-9 39 -26 78t-42.5 71t-61.5 52t-82 20
q-47 0 -81 -28t-56.5 -76.5t-33.5 -113t-11 -137.5q0 -72 11.5 -130.5t34 -100.5t55.5 -64.5t75 -22.5q30 0 67.5 18t72.5 50.5t62.5 78t36.5 101.5h10v-239z" />
    <glyph glyph-name="D" unicode="D" horiz-adv-x="648" 
d="M499 349q0 81 -16.5 140t-45.5 97t-69 56t-86 18h-89v-648h82q57 0 99 25.5t70 70.5t41.5 107t13.5 134zM609 337q0 -62 -20.5 -122.5t-63.5 -108t-108.5 -77t-155.5 -29.5h-240v12h70v648h-70v12h262q71 0 130.5 -24.5t103 -68.5t68 -105.5t24.5 -136.5z" />
    <glyph glyph-name="E" unicode="E" horiz-adv-x="621" 
d="M579 0h-558v12h70v648h-70v12h520v-168h-10q-7 77 -50.5 116.5t-102.5 39.5h-185v-308h49q29 0 54.5 9.5t44 27t29.5 43t11 57.5h10v-293h-10q0 69 -36.5 105.5t-102.5 36.5h-49v-326h170q29 0 63 14t64 39.5t52 62t27 81.5h10v-209z" />
    <glyph glyph-name="F" unicode="F" horiz-adv-x="562" 
d="M523 488h-10q-15 89 -66.5 130.5t-130.5 41.5h-123v-308h60q58 0 97 36.5t42 100.5h10v-283h-10q-5 59 -42 95.5t-91 36.5h-66v-326h70v-12h-242v12h70v648h-70v12h502v-184z" />
    <glyph glyph-name="G" unicode="G" horiz-adv-x="637" 
d="M643 241h-70v-201h-10q-26 10 -55.5 8t-55.5 -21t-60.5 -30t-65.5 -11q-59 0 -112 26t-93 72t-63 108.5t-23 135.5q0 76 26.5 141.5t68.5 113.5t93 75.5t100 27.5q44 0 70 -11.5t48 -25.5q23 -15 47 -15.5t41 27.5h7v-201h-11q-8 36 -24 74t-40.5 69.5t-57.5 51.5t-76 20
q-47 0 -81.5 -29t-58 -78.5t-35 -117t-11.5 -143.5q0 -160 47.5 -234.5t132.5 -74.5q17 0 37 3.5t39 12t35.5 21.5t25.5 32q10 22 12.5 61t2.5 113h-70v12h240v-12z" />
    <glyph glyph-name="H" unicode="H" horiz-adv-x="695" 
d="M668 0h-242v12h70v323h-303v-323h74v-12h-246v12h70v648h-70v12h246v-12h-74v-311h303v311h-70v12h242v-12h-70v-648h70v-12z" />
    <glyph glyph-name="I" unicode="I" horiz-adv-x="314" 
d="M263 0h-242v12h70v648h-70v12h242v-12h-70v-648h70v-12z" />
    <glyph glyph-name="J" unicode="J" horiz-adv-x="388" 
d="M349 660h-72v-529q0 -36 -13.5 -63.5t-35 -45.5t-48.5 -27t-55 -9q-33 0 -57.5 9.5t-40.5 24.5t-24 33t-8 36q0 24 12 42.5t33 18.5q23 0 35.5 -14t12.5 -42q0 -14 -2.5 -26t-5 -22t-3.5 -18t3 -15q5 -8 17.5 -11.5t28.5 -3.5q27 0 38 15t11 39v608h-70v12h244v-12z" />
    <glyph glyph-name="K" unicode="K" horiz-adv-x="622" 
d="M667 0h-257v12h70l-216 329h-71v-329h70v-12h-242v12h70v648h-70v12h242v-12h-70v-306h67l216 306h-70v12h157v-12h-70l-166 -235l270 -413h70v-12z" />
    <glyph glyph-name="L" unicode="L" horiz-adv-x="586" 
d="M556 0h-535v12h70v648h-70v12h242v-12h-70v-648h132q42 0 79.5 13t66.5 38.5t49 64t26 90.5h10v-218z" />
    <glyph glyph-name="M" unicode="M" horiz-adv-x="790" 
d="M739 0h-236v12h70v622h-4l-223 -648h-5l-246 657v-631h70v-12h-154v12h70v648h-70v12h176l196 -524h4l181 524h171v-12h-70v-648h70v-12z" />
    <glyph glyph-name="N" unicode="N" horiz-adv-x="627" 
d="M596 660h-70v-673h-7l-421 663h-3v-638h70v-12h-154v12h70v648h-70v12h188l310 -485h3v473h-70v12h154v-12z" />
    <glyph glyph-name="O" unicode="O" 
d="M541 332q0 76 -9.5 139t-32.5 107.5t-61 69t-94 24.5q-55 0 -93.5 -24.5t-63 -68t-35.5 -103t-11 -128.5q0 -97 12 -163.5t36.5 -107.5t62.5 -59t90 -18q99 0 149 81t50 251zM648 324q0 -68 -23.5 -128.5t-65.5 -107t-99 -73.5t-123 -27q-68 0 -123.5 28t-95.5 75
t-61.5 108t-21.5 128q0 60 21.5 123.5t61.5 115.5t97 85t129 33q75 0 132 -32.5t95.5 -84.5t57.5 -116t19 -127z" />
    <glyph glyph-name="P" unicode="P" horiz-adv-x="558" 
d="M439 480q0 34 -10 66.5t-32.5 57.5t-57.5 40.5t-84 15.5h-62v-345h93q75 0 114 44.5t39 120.5zM544 464q0 -40 -18.5 -70t-51.5 -50.5t-79 -30.5t-100 -10h-102v-291h70v-12h-242v12h70v648h-70v12h243q70 0 123 -20t87.5 -50.5t52 -67.5t17.5 -70z" />
    <glyph glyph-name="Q" unicode="Q" 
d="M541 332q0 76 -10.5 139t-34.5 107.5t-62.5 69t-94.5 24.5q-57 0 -95.5 -28.5t-61 -74t-32 -103.5t-9.5 -118q0 -111 15 -179.5t41.5 -106t63.5 -50t81 -12.5q41 0 77 17t63 56t43 102.5t16 156.5zM648 324q0 -72 -27 -133.5t-71.5 -106.5t-100 -70.5t-112.5 -25.5
q-13 0 -25 1.5t-24 3.5l-1 -3q18 -12 39.5 -19.5t50.5 -15.5q19 -6 33 -13.5t26 -19t24 -26.5t27 -35q12 -17 23 -29.5t24.5 -20.5t31.5 -11.5t45 -0.5l1 -10q-67 -6 -111.5 2t-73.5 24t-45.5 36.5t-28.5 38.5q-23 34 -45.5 62.5t-61.5 51.5q-47 16 -85.5 48.5t-66.5 75
t-43.5 94t-15.5 105.5q0 70 24.5 135t67 114t98.5 78.5t119 29.5q75 0 132 -35t95.5 -88.5t57.5 -116.5t19 -120z" />
    <glyph glyph-name="R" unicode="R" horiz-adv-x="575" 
d="M396 511q0 34 -8 61.5t-26 47t-47 30t-71 10.5h-51v-298h93q51 0 80.5 36.5t29.5 112.5zM584 7q-14 -9 -24.5 -14.5t-33.5 -5.5q-57 0 -94 30t-41 82q-3 43 -3.5 85.5t-2.5 80.5q-2 22 -10 37t-20.5 25t-29 15t-35.5 8h-97v-338h70v-12h-242v12h70v648h-70v12h214
q121 0 190 -47t69 -135q0 -32 -13 -55.5t-34.5 -40t-49 -26.5t-56.5 -14v-3q21 -7 40.5 -16.5t31.5 -17.5q16 -11 28.5 -21.5t21.5 -24t13.5 -30.5t6.5 -41q2 -42 2 -84.5t5 -72.5t19.5 -37t28.5 -7q11 0 20.5 4t20.5 12z" />
    <glyph glyph-name="S" unicode="S" horiz-adv-x="550" 
d="M519 190q0 -27 -13 -62t-41 -65.5t-72 -51.5t-106 -21q-30 0 -51.5 4.5t-39.5 11t-35.5 14t-38.5 13.5q-37 10 -55.5 2.5t-28.5 -24.5h-8v207h12q12 -41 34.5 -80t53 -69t67 -48t77.5 -18q77 0 117 39.5t40 105.5q0 45 -25.5 79.5t-78.5 54.5l-126 47q-69 26 -106 67.5
t-37 113.5q0 37 16 69t43.5 55t64 36t78.5 13q34 0 59.5 -7.5t48.5 -15.5q23 -9 43.5 -5.5t34.5 21.5h7v-168h-12q-4 26 -17.5 55t-37 53t-55.5 39.5t-72 15.5q-21 0 -44.5 -5.5t-43 -19.5t-32 -37t-12.5 -57q0 -44 23.5 -73t80.5 -50l140 -51q69 -25 108.5 -70.5
t39.5 -117.5z" />
    <glyph glyph-name="T" unicode="T" horiz-adv-x="594" 
d="M566 480h-11q-5 35 -20 67.5t-36.5 57.5t-48.5 40t-57 15h-56v-648h70v-12h-242v12h70v648h-56q-30 0 -57 -15t-48.5 -40t-36.5 -57.5t-20 -67.5h-11v192h560v-192z" />
    <glyph glyph-name="U" unicode="U" horiz-adv-x="641" 
d="M616 660h-70v-458q0 -57 -18 -97.5t-49.5 -66t-73 -37.5t-88.5 -12q-44 0 -85.5 9.5t-73.5 31.5t-52 58t-20 89v483h-70v12h242v-12h-70v-541q0 -58 38 -88t104 -30q29 0 64.5 9t66 31t51 59t20.5 94v466h-70v12h154v-12z" />
    <glyph glyph-name="V" unicode="V" horiz-adv-x="615" 
d="M617 660h-70l-227 -675h-8l-278 675h-70v12h244v-12h-70l215 -520h3l176 520h-70v12h155v-12z" />
    <glyph glyph-name="W" unicode="W" horiz-adv-x="979" 
d="M986 660h-70l-218 -675h-9l-211 575h-3l-186 -575h-9l-247 675h-70v12h245v-12h-70l187 -513h3l141 439l-27 74h-70v12h245v-12h-70l187 -514h3l165 514h-70v12h154v-12z" />
    <glyph glyph-name="X" unicode="X" horiz-adv-x="628" 
d="M643 0h-251v12h70l-185 310l-203 -310h70v-12h-157v12h70l212 322l-195 326h-70v12h251v-12h-70l142 -237l156 237h-69v12h154v-12h-70l-163 -250l238 -398h70v-12z" />
    <glyph glyph-name="Y" unicode="Y" horiz-adv-x="557" 
d="M557 660h-70l-149 -349v-299h70v-12h-242v12h70v292l-213 356h-70v12h251v-12h-70l197 -330l141 330h-70v12h155v-12z" />
    <glyph glyph-name="Z" unicode="Z" horiz-adv-x="581" 
d="M541 0h-524l376 659h-133q-40 0 -72 -15t-56 -40t-40.5 -59t-25.5 -71h-10v198h460l-378 -659h184q31 0 63 13.5t61 38.5t51.5 59t33.5 75h10v-199z" />
    <glyph glyph-name="bracketleft" unicode="[" horiz-adv-x="261" 
d="M194 -67h-139v806h139v-12h-70v-782h70v-12z" />
    <glyph glyph-name="backslash" unicode="\" horiz-adv-x="421" 
d="M409 0h-34l-380 672h34z" />
    <glyph glyph-name="bracketright" unicode="]" horiz-adv-x="261" 
d="M182 -67h-140v12h70v782h-70v12h140v-806z" />
    <glyph glyph-name="asciicircum" unicode="^" horiz-adv-x="448" 
d="M396 355h-54l-128 256l-128 -256h-54l159 317h46z" />
    <glyph glyph-name="underscore" unicode="_" horiz-adv-x="442" 
d="M420 -130h-420v30h420v-30z" />
    <glyph glyph-name="grave" unicode="`" horiz-adv-x="305" 
d="M242 475l-12 -12l-145 90q-17 11 -26 18.5t-9 20.5q0 14 9.5 22t18.5 8q12 0 20 -6.5t18 -15.5z" />
    <glyph glyph-name="a" unicode="a" horiz-adv-x="464" 
d="M274 202l-2 1q-23 -13 -43 -19.5t-44 -12.5q-14 -4 -27 -10t-23 -16.5t-16 -27t-6 -40.5q0 -36 15 -54.5t41 -18.5q13 0 31.5 6t34.5 20.5t27.5 38t11.5 59.5v74zM450 19q-13 -15 -31 -22t-32 -7q-15 0 -32.5 4.5t-32.5 13.5t-27 23.5t-17 34.5h-2q-7 -14 -17.5 -28
t-25 -25t-34.5 -17.5t-46 -6.5t-49.5 6.5t-41 20t-27.5 33.5t-10 47q0 25 11 44.5t42 29.5q20 7 42 9t49 5q35 5 63 14t42 25v86q0 37 -19.5 56.5t-54.5 19.5t-57 -16.5t-22 -31.5q0 -10 4 -17t9 -14t8.5 -15t3.5 -21q0 -14 -11.5 -27t-32.5 -13q-25 0 -37 18.5t-12 38.5
q0 26 13.5 46.5t35 35t48.5 22t53 7.5q30 0 57.5 -9.5t48.5 -27.5t33.5 -45t12.5 -62v-195q0 -23 12 -37.5t35 -14.5q12 0 22.5 6t19.5 14z" />
    <glyph glyph-name="b" unicode="b" horiz-adv-x="521" 
d="M387 200q0 51 -8 85.5t-22 55.5t-33 30t-41 9q-26 0 -50 -12.5t-43 -34t-30 -49.5t-11 -58v-58q0 -39 11 -69.5t28.5 -50.5t40 -30.5t46.5 -10.5q53 0 82.5 50t29.5 143zM474 183q0 -45 -18 -80t-45.5 -59.5t-61.5 -37t-66 -12.5q-26 0 -46 7t-36 18t-27.5 25.5
t-19.5 28.5l-3 -1v-72h-134v12h50v648h-50v12h134v-364l3 -1q17 33 51 59t83 26q36 0 70 -17t59.5 -46t41 -66.5t15.5 -79.5z" />
    <glyph glyph-name="c" unicode="c" horiz-adv-x="451" 
d="M397 276q0 -20 -12 -36t-32 -16q-22 0 -33.5 15t-11.5 35q0 17 5 29t5 28q0 18 -16.5 36.5t-53.5 18.5q-27 0 -50.5 -15.5t-40 -42.5t-26 -64t-9.5 -80q0 -94 33.5 -140t95.5 -46q13 0 29 2.5t33.5 10.5t34 22.5t31.5 38.5l10 -6q-24 -42 -62 -61.5t-84 -19.5
q-50 0 -89.5 18t-67 47t-42 65.5t-14.5 73.5q0 42 15.5 80t44.5 66.5t69 45.5t90 17q24 0 50 -8.5t48 -24.5t36 -38.5t14 -50.5z" />
    <glyph glyph-name="d" unicode="d" horiz-adv-x="524" 
d="M356 257q0 23 -9.5 46t-25 41t-36.5 29.5t-44 11.5q-25 0 -47 -10.5t-38 -35.5t-25.5 -66.5t-9.5 -104.5q0 -80 24 -124.5t78 -44.5q21 0 44.5 10.5t43 30t32.5 48.5t13 67v102zM490 0h-134v75l-2 1q-15 -27 -33 -44.5t-36 -27.5t-35.5 -13.5t-32.5 -3.5q-37 0 -71 17
t-59.5 44.5t-41 63t-15.5 72.5q0 50 19.5 89.5t50 67t67 42t71.5 14.5q23 0 41 -7t32 -18t24.5 -25t18.5 -28l2 1v340h-50v12h134v-660h50v-12z" />
    <glyph glyph-name="e" unicode="e" horiz-adv-x="446" 
d="M314 227v42q0 33 -7.5 55t-20 35.5t-29 19.5t-35.5 6q-49 0 -73 -43t-29 -115h194zM119 213v-39q0 -79 33 -126.5t86 -47.5q16 0 35.5 4.5t38 15.5t35 30t27.5 48l11 -5q-9 -29 -26 -49.5t-37.5 -33.5t-44 -18.5t-46.5 -5.5q-45 0 -82.5 18t-63.5 46.5t-40.5 65
t-14.5 73.5q0 44 14.5 82t40 66t60 44t73.5 16q46 0 80 -18.5t56.5 -46.5t34 -60t11.5 -59h-281z" />
    <glyph glyph-name="f" unicode="f" horiz-adv-x="264" 
d="M282 601q0 -20 -11.5 -35.5t-27.5 -15.5t-28.5 11t-12.5 31t9 30.5t16 18.5q8 10 2 21q-12 17 -40 17q-26 0 -43.5 -21t-17.5 -57q0 -25 2.5 -42.5t7.5 -38.5q3 -14 5.5 -31.5t4 -36t2.5 -36t1 -32.5h70v-14h-70v-358h50v-12h-184v12h50v358h-50v14h50v72q0 53 7 96.5
t22.5 74t39 47t56.5 16.5q21 0 37.5 -8.5t28 -21t18 -28.5t6.5 -31z" />
    <glyph glyph-name="g" unicode="g" horiz-adv-x="481" 
d="M394 -149q0 21 -6.5 39.5t-22 32.5t-41 22.5t-63.5 8.5h-43q-44 0 -73 -6.5t-46.5 -19t-25 -30.5t-7.5 -41q0 -61 40.5 -92.5t118.5 -31.5q48 0 80.5 10.5t52 27t28 38t8.5 42.5zM286 247q0 43 -7 70t-19 42.5t-27.5 21t-32.5 5.5q-14 0 -29 -5t-27 -19.5t-20 -41
t-8 -68.5q0 -75 22.5 -104.5t62.5 -29.5q12 0 27 5t28 19.5t21.5 39.5t8.5 65zM461 321q0 -16 -11 -26.5t-23 -10.5q-16 0 -28 9.5t-12 28.5q0 11 3 20t8 17q6 11 4 17q-3 9 -14 9q-13 0 -28 -9t-33 -38q16 -19 25 -41.5t9 -49.5q0 -35 -14 -61.5t-37 -44t-52 -26.5t-58 -9
q-6 0 -12.5 0.5t-12.5 1.5q-18 -1 -36.5 -4t-33.5 -8.5t-24.5 -14t-9.5 -20.5q0 -15 15.5 -27t59.5 -12h131q31 0 58 -9t47.5 -27.5t32.5 -47t12 -66.5t-16 -66.5t-43.5 -47.5t-65.5 -28t-83 -9q-47 0 -81 12.5t-56.5 33t-33.5 46t-11 51.5q0 16 6.5 30t15.5 25t19.5 19
t18.5 12v2q-24 9 -43.5 28t-19.5 56q0 35 27.5 54.5t71.5 27.5v3q-42 18 -67.5 52.5t-25.5 81.5q0 33 15 59.5t38 45t51 28.5t55 10q32 0 63.5 -13t54.5 -36q16 22 33 35.5t42 13.5q28 0 48.5 -22.5t20.5 -54.5z" />
    <glyph glyph-name="h" unicode="h" horiz-adv-x="504" 
d="M469 0h-184v12h50v280q0 27 -6.5 44t-17 27.5t-24 14.5t-27.5 4q-19 0 -38.5 -11t-35 -29.5t-25.5 -44t-10 -55.5v-230h50v-12h-184v12h50v648h-50v12h134v-352l2 -1q18 30 49.5 54.5t77.5 24.5q69 0 104 -35.5t35 -112.5v-238h50v-12z" />
    <glyph glyph-name="i" unicode="i" horiz-adv-x="252" 
d="M201 0h-184v12h50v359h-50v13h134v-372h50v-12zM156 547q0 -21 -14.5 -35.5t-35.5 -14.5t-35.5 14.5t-14.5 35.5t14.5 35.5t35.5 14.5t35.5 -14.5t14.5 -35.5z" />
    <glyph glyph-name="j" unicode="j" horiz-adv-x="243" 
d="M146 -108q0 -46 -12 -78.5t-33.5 -53t-50.5 -30t-63 -9.5q-45 0 -72 27t-27 61q0 22 12.5 37t29.5 15q16 0 27 -10t11 -27q0 -20 -9.5 -28.5t-16.5 -16.5q-5 -5 -4.5 -12.5t5.5 -14.5q5 -8 17 -13.5t26 -5.5q32 0 54 19.5t22 73.5v546h-50v12h134v-492zM148 547
q0 -21 -14.5 -35.5t-35.5 -14.5t-35.5 14.5t-14.5 35.5t14.5 35.5t35.5 14.5t35.5 -14.5t14.5 -35.5z" />
    <glyph glyph-name="k" unicode="k" horiz-adv-x="482" 
d="M457 0h-199v12h50l-98 168h-59v-168h50v-12h-185v12h51v648h-50v12h134v-480h47l136 180h-50v12h118v-12h-50l-89 -117l144 -243h50v-12z" />
    <glyph glyph-name="l" unicode="l" horiz-adv-x="252" 
d="M201 0h-184v12h50v648h-50v12h134v-660h50v-12z" />
    <glyph glyph-name="m" unicode="m" horiz-adv-x="758" 
d="M739 0h-184v12h50v280q0 52 -18.5 69t-44.5 17q-23 0 -45 -12.5t-39 -32t-28 -44t-11 -49.5v-228h50v-12h-184v12h50v280q0 52 -19.5 68.5t-52.5 16.5q-21 0 -41 -10t-35.5 -27.5t-25.5 -42t-10 -52.5v-233h50v-12h-184v12h50v360h-50v12h134v-64l2 -1q18 31 49.5 52.5
t77.5 21.5q21 0 42 -5.5t39 -17.5t32 -31t21 -45h2q23 51 60 75t74 24q28 0 53.5 -8t44.5 -25.5t30 -44.5t11 -65v-238h50v-12z" />
    <glyph glyph-name="n" unicode="n" horiz-adv-x="504" 
d="M469 0h-184v12h50v280q0 27 -6.5 44t-17 27.5t-24 14.5t-27.5 4q-18 0 -37.5 -11t-35.5 -29.5t-26 -44t-10 -55.5v-230h50v-12h-184v12h50v360h-50v12h134v-64l2 -1q18 30 49.5 54.5t77.5 24.5q69 0 104 -35.5t35 -112.5v-238h50v-12z" />
    <glyph glyph-name="o" unicode="o" horiz-adv-x="520" 
d="M381 185q0 60 -11 99t-29 62t-42 32t-49 9q-22 0 -45 -8t-41.5 -29t-30 -57t-11.5 -92q0 -60 9.5 -99.5t26.5 -62.5t40.5 -32.5t52.5 -9.5q24 0 47.5 9t41.5 30.5t29.5 57.5t11.5 91zM473 185q0 -45 -18 -82t-48.5 -63.5t-70.5 -40.5t-85 -14q-48 0 -88.5 16t-70 44
t-46 67t-16.5 85q0 39 16 75.5t44.5 64.5t69 45t89.5 17q47 0 88 -15.5t71 -44t47.5 -67.5t17.5 -87z" />
    <glyph glyph-name="p" unicode="p" horiz-adv-x="524" 
d="M389 174q0 46 -6 85.5t-19.5 67.5t-36 44t-55.5 16q-23 0 -45 -10.5t-39 -27t-27 -37.5t-10 -42v-143q0 -23 9.5 -46t25 -41t36.5 -29.5t44 -11.5q24 0 46 9t39.5 29.5t27.5 54t10 82.5zM477 196q0 -48 -19.5 -87t-50 -66t-67.5 -41.5t-71 -14.5q-23 0 -41 7t-32 18
t-24.5 25t-18.5 28l-2 -1v-322h50v-12h-184v12h50v630h-50v12h134v-57l2 -1q25 36 53.5 54.5t76.5 18.5q44 0 80 -18.5t61.5 -48t39 -65.5t13.5 -71z" />
    <glyph glyph-name="q" unicode="q" horiz-adv-x="519" 
d="M355 268q0 22 -9.5 42.5t-25.5 37t-36 26.5t-42 10q-60 0 -91.5 -48t-31.5 -142q0 -35 5 -69.5t18.5 -62t36.5 -44.5t58 -17q17 0 37.5 9t38.5 26t30 40.5t12 53.5v138zM489 -270h-184v12h50v321l-2 1q-17 -27 -47 -51t-77 -24q-34 0 -69 14t-64 40t-47.5 62.5
t-18.5 81.5q0 43 18.5 81.5t47.5 66.5t66 44.5t74 16.5q39 0 66.5 -16.5t50.5 -51.5l2 1v55h134v-12h-50v-630h50v-12z" />
    <glyph glyph-name="r" unicode="r" horiz-adv-x="394" 
d="M364 299q0 -28 -14.5 -46t-34.5 -18q-22 0 -34.5 15t-12.5 33q0 11 2.5 21t6.5 20q8 21 8 35q0 22 -27 22q-15 0 -33.5 -13t-35 -36t-27.5 -54t-11 -67v-199h50v-12h-184v12h50v359h-50v13h134v-77l3 -1q22 43 53.5 67t68.5 24q13 0 28.5 -6t28.5 -18t22 -30.5t9 -43.5z
" />
    <glyph glyph-name="s" unicode="s" horiz-adv-x="384" 
d="M343 109q0 -24 -9.5 -46t-27.5 -38.5t-43 -26.5t-55 -10q-31 0 -52 7.5t-40 16.5q-23 11 -44 6.5t-31 -18.5h-8v148h10q9 -34 26 -61t39.5 -46.5t47.5 -30t51 -10.5q42 0 63.5 21t21.5 52q0 26 -19.5 46t-56.5 29l-71 18q-46 11 -77 40.5t-31 72.5q0 50 34 83.5t92 33.5
q23 0 42.5 -5.5t34.5 -10.5t31.5 -4t24.5 10h8v-131h-10q-4 30 -16.5 53.5t-30 40.5t-38.5 26t-41 9q-14 0 -28.5 -3.5t-26 -11t-19 -20t-7.5 -30.5q0 -26 15 -42t53 -27l77 -21q60 -17 85.5 -48.5t25.5 -71.5z" />
    <glyph glyph-name="t" unicode="t" horiz-adv-x="285" 
d="M252 117q-1 -24 -6.5 -47.5t-17 -42t-30.5 -29.5t-46 -11q-21 0 -39.5 5.5t-32 19.5t-21 37t-7.5 59v262h-50v14h50v126q20 11 41.5 25.5t37.5 27.5l5 -2v-177h70v-14h-70v-323q0 -15 6 -29.5t24 -14.5q11 0 23.5 6t23.5 19.5t18.5 35.5t8.5 54z" />
    <glyph glyph-name="u" unicode="u" horiz-adv-x="496" 
d="M461 0h-134v68l-2 1q-17 -33 -47 -57.5t-73 -24.5q-29 0 -55 6.5t-45.5 22.5t-31 42.5t-11.5 65.5v248h-50v12h134v-314q0 -37 17.5 -53.5t42.5 -16.5q22 0 43.5 10.5t39 29.5t28 46.5t10.5 60.5v225h-50v12h134v-372h50v-12z" />
    <glyph glyph-name="v" unicode="v" horiz-adv-x="443" 
d="M406 372h-50l-141 -382h-18l-174 382h-50v12h189v-12h-50l125 -271h5l100 271h-50v12h114v-12z" />
    <glyph glyph-name="w" unicode="w" horiz-adv-x="688" 
d="M662 372h-50l-141 -382h-18l-133 310l-115 -310h-18l-164 382h-50v12h189v-12h-50l115 -271h5l80 217l-23 54h-50v12h189v-12h-50l115 -271h5l100 271h-50v12h114v-12z" />
    <glyph glyph-name="x" unicode="x" horiz-adv-x="437" 
d="M426 0h-197v12h50l-101 153l-115 -153h50v-12h-115v12h50l123 164l-128 196h-50v12h193v-12h-50l86 -129l97 129h-50v12h115v-12h-50l-105 -139l147 -221h50v-12z" />
    <glyph glyph-name="y" unicode="y" horiz-adv-x="442" 
d="M408 372h-50l-221 -548q-22 -55 -46 -77t-63 -22q-17 0 -31 7t-24.5 18.5t-16.5 25t-6 26.5q0 18 10 33.5t32 15.5q16 0 25.5 -12t9.5 -26q0 -16 -5 -26t-13 -17q-14 -12 -2 -24q8 -8 26 -8q7 0 18 2.5t22.5 10t23.5 22.5t22 41l72 180l-161 378h-50v12h189v-12h-50
l114 -265h5l106 265h-50v12h114v-12z" />
    <glyph glyph-name="z" unicode="z" horiz-adv-x="436" 
d="M384 0h-363l249 370h-61q-57 0 -93.5 -32.5t-44.5 -88.5h-10v135h317l-250 -370h81q63 0 108.5 34t56.5 96h10v-144z" />
    <glyph glyph-name="braceleft" unicode="{" horiz-adv-x="281" 
d="M227 727q-19 0 -31 -8t-18.5 -29.5t-9 -60.5t-2.5 -101q0 -52 -3.5 -86t-12 -55.5t-23.5 -33t-37 -17.5q22 -7 37 -18t23.5 -32t12 -54t3.5 -83q0 -62 1.5 -100.5t7 -61t17 -31t32.5 -10.5v-12q-35 0 -58.5 6t-38 24t-21 51t-6.5 87q0 66 -1 109.5t-6 69.5t-16 37t-31 12
v12q19 2 30 10.5t16.5 31.5t6.5 64.5t1 109.5q0 60 7.5 95.5t23.5 54.5t40 25t56 6v-12z" />
    <glyph glyph-name="bar" unicode="|" horiz-adv-x="173" 
d="M80 0h-30v672h30v-672z" />
    <glyph glyph-name="braceright" unicode="}" horiz-adv-x="282" 
d="M232 330q-20 -1 -31 -12t-16 -37t-6 -69.5t-1 -109.5q0 -54 -6.5 -87t-21 -51t-38 -24t-58.5 -6v12q21 2 32.5 10.5t17 31t7 61t1.5 100.5q0 50 3.5 83t12 54t23 32t37.5 18q-23 6 -37.5 17.5t-23 33t-12 55.5t-3.5 86q0 62 -2.5 101t-9 60.5t-18.5 29.5t-31 8v12
q32 0 56 -6t39.5 -25t23.5 -54.5t8 -95.5q0 -68 1 -109.5t6.5 -64.5t16 -31.5t30.5 -10.5v-12z" />
    <glyph glyph-name="asciitilde" unicode="~" horiz-adv-x="477" 
d="M430 515q-20 -28 -45 -51.5t-62 -23.5q-32 0 -55 8.5t-49 23.5q-16 9 -36.5 16.5t-43.5 7.5q-26 0 -45.5 -18t-30.5 -41l-29 27q10 14 21 27.5t23.5 24t28 17t34.5 6.5q32 0 55 -8.5t49 -23.5q15 -9 36 -16.5t44 -7.5q26 0 45.5 18.5t30.5 41.5z" />
    <glyph glyph-name="uni00A0" unicode="&#xa0;" horiz-adv-x="190" 
 />
    <glyph glyph-name="exclamdown" unicode="&#xa1;" horiz-adv-x="215" 
d="M141 -222q0 -26 -17 -40.5t-37 -14.5t-36 12.5t-16 38.5q0 45 7.5 83t13.5 82q4 29 7.5 68t7.5 81.5t7 86t5 80.5h14q2 -37 4.5 -80.5t5.5 -86t6.5 -82t7.5 -68.5q5 -45 12.5 -82t7.5 -78zM138 337q0 -26 -14.5 -44t-34.5 -18t-34.5 18t-14.5 44t14.5 44t34.5 18
t34.5 -18t14.5 -44z" />
    <glyph glyph-name="cent" unicode="&#xa2;" horiz-adv-x="337" 
d="M155 553q-19 -5 -29.5 -21.5t-15.5 -39t-6 -49t-1 -53.5q0 -74 9 -111t43 -43v317zM277 294q-16 -29 -42.5 -48t-55.5 -22v-96h-24v96q-27 2 -50 14.5t-40 33.5t-26.5 50t-9.5 65q0 33 11.5 63.5t29.5 54.5t40.5 40t44.5 21v80h24v-78q20 -1 37.5 -8t30 -18t20 -24
t7.5 -26q0 -15 -11.5 -23.5t-22.5 -8.5q-14 0 -26 10t-12 27q0 10 3 16t7 10l7 7t3 8q0 6 -12.5 11t-30.5 7v-320q29 3 51.5 22.5t36.5 42.5z" />
    <glyph glyph-name="sterling" unicode="&#xa3;" horiz-adv-x="460" 
d="M141 75q-11 6 -27.5 10.5t-31.5 4.5q-23 0 -41.5 -9.5t-18.5 -37.5q0 -14 9.5 -24.5t31.5 -10.5q26 0 45.5 19.5t32.5 47.5zM448 72q-12 -13 -23 -27.5t-23.5 -27t-28 -20.5t-35.5 -8q-23 0 -47 9t-48 21.5t-47 26t-44 23.5q-13 -29 -36 -52t-55 -23q-23 0 -38 13t-15 36
q0 22 12 37.5t30 26t39 15.5t39 5h17.5t16.5 -2q3 14 4.5 23.5t1.5 18.5q0 35 -14.5 63.5t-31.5 58.5h-109v14h99q-26 33 -47.5 71t-21.5 80q0 43 16.5 73.5t44 50.5t63.5 29.5t74 9.5q71 0 109.5 -29.5t38.5 -90.5q0 -27 -13 -45.5t-38 -18.5q-17 0 -29.5 11t-12.5 31
t12.5 30.5t26.5 10.5q11 0 14 -2.5t10 -2.5q10 0 10 17q0 32 -29.5 53.5t-78.5 21.5q-69 0 -102 -41t-33 -108q0 -38 12 -75.5t24 -75.5h196v-14h-192q7 -23 12 -49.5t5 -52.5q0 -15 -2.5 -31.5t-7.5 -32.5q18 -1 48 -13t60.5 -25.5t57.5 -24.5t41 -11q18 0 32.5 8t25.5 22z
" />
    <glyph glyph-name="currency" unicode="&#xa4;" horiz-adv-x="334" 
d="M231 502q-5 -8 -13.5 -10.5t-17.5 2.5q-12 8 -21 19t-24 22q-7 4 -10 2q-4 -3 -3 -12q2 -18 7 -30.5t5 -26.5q0 -23 -22 -23t-22 23q0 14 5 26.5t7 31.5v5.5t-2 4.5q-5 3 -12 -2q-15 -12 -24 -22.5t-20 -17.5q-20 -11 -31 8q-5 8 -2.5 17t11.5 14q11 7 25 8.5t31 9.5
q9 4 9 8q0 5 -7 8q-19 8 -33 10t-25 8q-20 12 -9 31q5 8 13.5 10.5t17.5 -2.5q11 -7 20 -17.5t23 -21.5q8 -6 12 -3t3 11q-2 18 -7 30.5t-5 26.5q0 23 22 23t22 -23q0 -14 -5 -26.5t-7 -30.5q-2 -10 2 -12q4 -3 9 1q17 12 26 23t21 19q20 11 31 -8q5 -8 2.5 -17t-11.5 -14
q-12 -7 -26 -8.5t-31 -9.5q-7 -3 -7 -8t6 -7q18 -8 32 -10t26 -9q20 -12 9 -31z" />
    <glyph glyph-name="yen" unicode="&#xa5;" horiz-adv-x="546" 
d="M529 593h-60l-143 -286h188v-30h-194v-86h194v-30h-194v-149h70v-12h-237v12h70v149h-185v30h185v86h-185v30h173l-183 286h-61v12h236v-12h-70l180 -281l140 281h-70v12h146v-12z" />
    <glyph glyph-name="brokenbar" unicode="&#xa6;" horiz-adv-x="190" 
d="M80 366v306h30v-306h-30zM110 313v-313h-30v313h30z" />
    <glyph glyph-name="section" unicode="&#xa7;" horiz-adv-x="470" 
d="M501 601q0 -20 -11.5 -35.5t-27.5 -15.5t-28.5 11t-12.5 31t9 30.5t16 18.5q8 10 2 21q-12 17 -40 17q-26 0 -43.5 -21t-17.5 -57q0 -25 2.5 -42.5t7.5 -38.5q8 -31 10.5 -67.5t2.5 -68.5h52v-14h-52v-358h50v-12h-178v12h44v358h-46v14h46v159q-13 4 -21.5 16.5
t-8.5 29.5q0 11 3.5 22t8.5 19q8 17 -3 31q-9 11 -23.5 14.5t-28.5 3.5q-32 0 -58 -18.5t-30 -53.5q-3 -25 -1 -47.5t7 -43.5q8 -30 10.5 -64.5t2.5 -67.5h50v-14h-50v-358h46v-12h-180v12h50v358h-50v14h50v115q0 43 12 78.5t33 60.5t50 38.5t62 13.5q30 0 54.5 -11
t40.5 -28q3 -3 5.5 -6.5t4.5 -6.5q15 25 37 38.5t52 13.5q21 0 37.5 -8.5t28 -21t18 -28.5t6.5 -31z" />
    <glyph glyph-name="dieresis" unicode="&#xa8;" horiz-adv-x="364" 
d="M128 505q0 -15 -11.5 -27t-27.5 -12q-17 0 -28 12t-11 27q0 16 11 28t28 12q16 0 27.5 -12t11.5 -28zM292 505q0 -15 -11.5 -27t-27.5 -12q-17 0 -28 12t-11 27q0 16 11 28t28 12q16 0 27.5 -12t11.5 -28z" />
    <glyph glyph-name="copyright" unicode="&#xa9;" horiz-adv-x="694" 
d="M472 136h-4q-11 11 -31 13.5t-40 -6.5q-14 -6 -31.5 -11.5t-34.5 -5.5q-31 0 -60 13.5t-51 37t-35 56t-13 70.5q0 45 16.5 79t41.5 56.5t54 34t53 11.5q23 0 39.5 -6t29.5 -13q14 -8 28 -6.5t22 9.5h5v-103h-7q-5 20 -14.5 39t-24 34t-34.5 24.5t-46 9.5t-45 -13.5
t-31.5 -37t-18.5 -56t-6 -69.5q0 -75 25 -116.5t73 -41.5q17 0 38 8t40.5 24t34.5 38.5t20 51.5h7v-124zM627 302q0 58 -22.5 110t-61 91t-90 62t-109.5 23t-109.5 -23t-90 -62t-61 -91t-22.5 -110t22.5 -110t61 -91t90 -62t109.5 -23t109.5 23t90 62t61 91t22.5 110z
M658 302q0 -65 -24.5 -123t-67 -101t-99.5 -68t-123 -25t-123 25t-99.5 68t-67 101t-24.5 123t24.5 123t67 101t99.5 68t123 25t123 -25t99.5 -68t67 -101t24.5 -123z" />
    <glyph glyph-name="ordfeminine" unicode="&#xaa;" horiz-adv-x="313" 
d="M171 506q-24 0 -41 -1.5t-28 -7t-16.5 -16.5t-5.5 -31q0 -23 6.5 -36.5t29.5 -13.5q16 0 31.5 9t23.5 31v66zM278 414q-9 -13 -21 -20.5t-32 -7.5q-23 0 -36 9.5t-17 26.5h-1q-11 -20 -30 -28t-46 -8q-34 0 -56 13t-22 43q0 12 6 24.5t22.5 23.5t46.5 18t79 7v64
q0 19 -12 24.5t-29 5.5q-6 0 -15 -1t-18 -4t-15 -7.5t-6 -11.5q0 -5 3.5 -7t8 -4.5t8.5 -6.5t4 -12q0 -11 -8.5 -19t-22.5 -8t-23 8.5t-9 21.5q0 28 26.5 44t66.5 16q19 0 37 -4t31.5 -12.5t22 -21t8.5 -30.5v-127q0 -8 2.5 -15.5t10.5 -7.5q10 0 16.5 5t12.5 13z" />
    <glyph glyph-name="guillemotleft" unicode="&#xab;" horiz-adv-x="399" 
d="M196 67l-14 -12l-138 119q-20 17 -20 36q0 10 5.5 18.5t13.5 17.5l139 120l14 -12l-112 -143zM340 67l-14 -12l-138 119q-20 17 -20 36q0 10 5.5 18.5t13.5 17.5l139 120l14 -12l-112 -143z" />
    <glyph glyph-name="logicalnot" unicode="&#xac;" horiz-adv-x="598" 
d="M532 328v-204h-52v152h-414v52h466z" />
    <glyph glyph-name="uni00AD" unicode="&#xad;" horiz-adv-x="374" 
d="M300 276h-270v52h270v-52z" />
    <glyph glyph-name="registered" unicode="&#xae;" horiz-adv-x="694" 
d="M409 395q0 35 -18.5 52.5t-67.5 17.5h-29v-147h53q29 0 45.5 19t16.5 58zM520 138q-8 -5 -16 -7.5t-19 -2.5q-32 0 -54 15t-24 42q-2 22 -2 43t-1 41q-2 23 -17.5 30.5t-35.5 7.5h-57v-160h37v-12h-135v12h40v318h-40v12h122q69 0 109 -24t40 -69q0 -16 -7.5 -28
t-19 -20.5t-26 -14t-28.5 -7.5v-1l16.5 -5.5t17.5 -7.5q19 -11 28.5 -25t11.5 -38q2 -22 1.5 -42t3.5 -36q1 -8 9 -13.5t16 -5.5q11 0 25 8zM627 302q0 58 -22.5 110t-61 91t-90 62t-109.5 23t-109.5 -23t-90 -62t-61 -91t-22.5 -110t22.5 -110t61 -91t90 -62t109.5 -23
t109.5 23t90 62t61 91t22.5 110zM658 302q0 -65 -24.5 -123t-67 -101t-99.5 -68t-123 -25t-123 25t-99.5 68t-67 101t-24.5 123t24.5 123t67 101t99.5 68t123 25t123 -25t99.5 -68t67 -101t24.5 -123z" />
    <glyph glyph-name="macron" unicode="&#xaf;" horiz-adv-x="354" 
d="M282 469h-232v41h232v-41z" />
    <glyph glyph-name="degree" unicode="&#xb0;" horiz-adv-x="348" 
d="M259 482q0 20 -7.5 38t-21 31.5t-31.5 21.5t-39 8t-39 -8t-31.5 -21.5t-21 -31.5t-7.5 -38t7.5 -38t21 -31.5t31.5 -21.5t39 -8t39 8t31.5 21.5t21 31.5t7.5 38zM290 482q0 -27 -10 -50.5t-28 -41.5t-41.5 -28t-50.5 -10q-28 0 -51.5 10t-41 28t-27.5 41.5t-10 50.5
t10 50.5t27.5 41.5t41 28t51.5 10q27 0 50.5 -10t41.5 -28t28 -41.5t10 -50.5z" />
    <glyph glyph-name="plusminus" unicode="&#xb1;" horiz-adv-x="538" 
d="M481 74h-440v52h440v-52zM481 327h-194v-152h-52v152h-194v52h194v151h52v-151h194v-52z" />
    <glyph glyph-name="uni00B2" unicode="&#xb2;" horiz-adv-x="497" 
d="M112 581q0 -15 23 -15q11 0 18 6t21 6q17 0 28 -12t11 -31q0 -20 -16 -33t-40 -13q-37 0 -57 23.5t-20 55.5q0 21 11.5 41.5t32.5 37.5t50.5 27.5t64.5 10.5q81 0 129 -27.5t48 -85.5q0 -19 -11 -36.5t-27.5 -33.5t-37.5 -29.5t-40 -24.5q-38 -21 -75 -46t-64 -47l1 -2
q23 2 52 2.5t58.5 -0.5t57 -3.5t47.5 -5.5l25 41l21 -4l-51 -108q-33 8 -73.5 12t-81 3.5t-77.5 -5t-63 -11.5l-20 26q13 16 36.5 35.5t50.5 39.5t54 39t47 36q42 34 66.5 66t24.5 64t-25 53.5t-85 21.5q-27 0 -48.5 -7t-36 -18t-22 -24t-7.5 -25z" />
    <glyph glyph-name="uni00B3" unicode="&#xb3;" horiz-adv-x="483" 
d="M416 397q0 -22 -16 -42.5t-44 -37t-66.5 -26.5t-82.5 -10q-69 0 -109.5 27t-40.5 65q0 21 16.5 36t40.5 15q28 0 37.5 -10t9.5 -21q0 -17 -17 -26q-21 -10 -21 -27q0 -6 6.5 -12.5t18 -12t26 -8.5t30.5 -3q57 0 92 22.5t35 74.5q0 42 -29 60t-77 20q-21 1 -39 -1t-33 -4
l-7 22q28 5 56.5 12t51.5 16q38 16 51 34t13 41q0 57 -98 57q-33 0 -55.5 -9.5t-22.5 -22.5q0 -9 3.5 -13.5t12.5 -9.5q6 -3 12 -8t6 -14q0 -11 -13.5 -20.5t-34.5 -7.5q-20 2 -33 15.5t-13 31.5t12.5 32.5t32.5 25.5t45.5 17t51.5 6q34 0 66 -5t56.5 -16t39 -27.5
t14.5 -40.5q0 -15 -7.5 -26t-20 -19.5t-28.5 -15t-32 -11.5q-21 -6 -37.5 -10t-35.5 -9v-2q16 0 40.5 -2t50.5 -10q38 -11 62 -34.5t24 -55.5z" />
    <glyph glyph-name="acute" unicode="&#xb4;" horiz-adv-x="318" 
d="M242 591q0 -13 -9 -20.5t-26 -18.5l-145 -90l-12 12l126 125q10 9 18 15.5t20 6.5q9 0 18.5 -8t9.5 -22z" />
    <glyph glyph-name="mu" unicode="&#xb5;" horiz-adv-x="502" 
d="M457 0h-130v68l-2 1q-17 -33 -47 -57.5t-73 -24.5q-23 0 -44.5 4t-38.5 14q1 -48 6.5 -100t5.5 -97q0 -43 -39 -43q-40 0 -40 43q0 18 1 36t2.5 38.5t2.5 45.5t1 58v386h-50v12h134v-314q0 -37 17.5 -53.5t42.5 -16.5q22 0 43.5 10.5t39 29.5t28 46.5t10.5 60.5v225h-47
v12h131v-372h46v-12z" />
    <glyph glyph-name="mu" unicode="&#x3bc;" horiz-adv-x="502" 
d="M457 0h-130v68l-2 1q-17 -33 -47 -57.5t-73 -24.5q-23 0 -44.5 4t-38.5 14q1 -48 6.5 -100t5.5 -97q0 -43 -39 -43q-40 0 -40 43q0 18 1 36t2.5 38.5t2.5 45.5t1 58v386h-50v12h134v-314q0 -37 17.5 -53.5t42.5 -16.5q22 0 43.5 10.5t39 29.5t28 46.5t10.5 60.5v225h-47
v12h131v-372h46v-12z" />
    <glyph glyph-name="paragraph" unicode="&#xb6;" horiz-adv-x="485" 
d="M425 -159h-103v753h-67v-753h-103v12h50v396q-48 0 -80.5 13.5t-53 38t-29.5 58.5t-9 75q0 43 9 75.5t30 54t56 32t87 10.5h213v-12h-50v-741h50v-12z" />
    <glyph glyph-name="periodcentered" unicode="&#xb7;" horiz-adv-x="212" 
d="M127 327q0 -26 -14.5 -44t-34.5 -18t-34.5 18t-14.5 44t14.5 44t34.5 18t34.5 -18t14.5 -44z" />
    <glyph glyph-name="cedilla" unicode="&#xb8;" horiz-adv-x="244" 
d="M184 -120q0 -20 -8.5 -33t-22 -20.5t-29.5 -11t-30 -3.5q-22 0 -41 5.5t-33 11.5l6 14q5 -3 16 -5.5t30 -4.5q24 -2 37.5 9.5t13.5 35.5q0 14 -9 24.5t-20 10.5q-14 0 -32 -5l-14 6l46 86h19l-39 -73l1 -2q21 9 47 9q22 0 42 -14t20 -40z" />
    <glyph glyph-name="uni00B9" unicode="&#xb9;" horiz-adv-x="412" 
d="M346 299h-263v23h94v327l-84 -120l-28 4l99 139h89v-350h93v-23z" />
    <glyph glyph-name="ordmasculine" unicode="&#xba;" horiz-adv-x="313" 
d="M203 502q0 25 -1 44.5t-6.5 33.5t-18 21.5t-35.5 7.5t-35.5 -7.5t-18.5 -21.5t-7 -33.5t-1 -44.5t1 -44.5t7 -33.5t18.5 -21.5t35.5 -7.5t35.5 7.5t18 21.5t6.5 33.5t1 44.5zM265 502q0 -23 -8.5 -43.5t-24.5 -37t-39 -26t-51 -9.5q-29 0 -52.5 9.5t-39.5 26t-24.5 37
t-8.5 43.5q0 22 8.5 43t24.5 37.5t39.5 26t52.5 9.5q28 0 51 -9.5t39 -26t24.5 -37.5t8.5 -43z" />
    <glyph glyph-name="guillemotright" unicode="&#xbb;" horiz-adv-x="399" 
d="M186 210q0 -19 -20 -36l-138 -119l-14 12l112 144l-112 143l14 12l139 -120q8 -9 13.5 -17.5t5.5 -18.5zM330 210q0 -19 -20 -36l-138 -119l-14 12l112 144l-112 143l14 12l139 -120q8 -9 13.5 -17.5t5.5 -18.5z" />
    <glyph glyph-name="onequarter" unicode="&#xbc;" horiz-adv-x="933" 
d="M913 124h-78v-100h70v-24h-207v24h62v100h-242l-6 19l193 281h111l-257 -273l2 -2h199v105l75 27v-132h78v-25zM658 672l-380 -672h-34l380 672h34zM311 299h-263v23h94v327l-84 -120l-28 4l99 139h89v-350h93v-23z" />
    <glyph glyph-name="onehalf" unicode="&#xbd;" horiz-adv-x="922" 
d="M587 301q0 -15 23 -15q11 0 18 6t21 6q17 0 28 -12t11 -31q0 -20 -16 -33t-40 -13q-37 0 -57 23.5t-20 55.5q0 21 11.5 41.5t32.5 37.5t50.5 27.5t64.5 10.5q81 0 129 -27.5t48 -85.5q0 -19 -11 -36.5t-27.5 -33.5t-37.5 -29.5t-40 -24.5q-38 -21 -75 -46t-64 -47l1 -2
q23 2 52 2.5t58.5 -0.5t57 -3.5t47.5 -5.5l25 41l21 -4l-51 -108q-33 8 -73.5 12t-81 3.5t-77.5 -5t-63 -11.5l-20 26q13 16 36.5 35.5t50.5 39.5t54 39t47 36q42 34 66.5 66t24.5 64t-25 53.5t-85 21.5q-27 0 -48.5 -7t-36 -18t-22 -24t-7.5 -25zM658 672l-380 -672h-34
l380 672h34zM311 299h-263v23h94v327l-84 -120l-28 4l99 139h89v-350h93v-23z" />
    <glyph glyph-name="threequarters" unicode="&#xbe;" horiz-adv-x="987" 
d="M393 397q0 -22 -16 -42.5t-44 -37t-66.5 -26.5t-82.5 -10q-69 0 -109.5 27t-40.5 65q0 21 16.5 36t40.5 15q28 0 37.5 -10t9.5 -21q0 -17 -17 -26q-21 -10 -21 -27q0 -6 6.5 -12.5t18 -12t26 -8.5t30.5 -3q57 0 92 22.5t35 74.5q0 42 -29 60t-77 20q-21 1 -39 -1t-33 -4
l-7 22q28 5 56.5 12t51.5 16q38 16 51 34t13 41q0 57 -98 57q-33 0 -55.5 -9.5t-22.5 -22.5q0 -9 3.5 -13.5t12.5 -9.5q6 -3 12 -8t6 -14q0 -11 -13.5 -20.5t-34.5 -7.5q-20 2 -33 15.5t-13 31.5t12.5 32.5t32.5 25.5t45.5 17t51.5 6q34 0 66 -5t56.5 -16t39 -27.5
t14.5 -40.5q0 -15 -7.5 -26t-20 -19.5t-28.5 -15t-32 -11.5q-21 -6 -37.5 -10t-35.5 -9v-2q16 0 40.5 -2t50.5 -10q38 -11 62 -34.5t24 -55.5zM967 124h-78v-100h70v-24h-207v24h62v100h-242l-6 19l193 281h111l-257 -273l2 -2h199v105l75 27v-132h78v-25zM712 672
l-380 -672h-34l380 672h34z" />
    <glyph glyph-name="questiondown" unicode="&#xbf;" horiz-adv-x="340" 
d="M298 334q0 -26 -13.5 -45t-32.5 -22v-235l-6 -2q-17 17 -33.5 28.5t-34.5 11.5q-15 0 -27.5 -8.5t-21 -29t-13.5 -55.5t-5 -88q0 -26 3.5 -54t12.5 -52t23.5 -39.5t37.5 -15.5q20 0 27 7.5t7 17.5q0 9 -2.5 15.5t-6 11.5t-6 10.5t-2.5 13.5q0 18 13 26t25 8
q20 0 29.5 -15t9.5 -32t-8.5 -31t-22 -24.5t-30.5 -16t-33 -5.5q-38 0 -67 17t-49 44.5t-30.5 61.5t-10.5 68q0 43 12 76.5t31.5 56.5t44 34.5t48.5 11.5q27 0 41 -7t28 -16l3 2v205q-19 3 -32 21.5t-13 44.5q0 27 15.5 46t36.5 19t36.5 -19t15.5 -46z" />
    <glyph glyph-name="Agrave" unicode="&#xc0;" horiz-adv-x="579" 
d="M339 747l-12 -12l-145 90q-17 11 -26 18.5t-9 20.5q0 14 9.5 22t18.5 8q12 0 20 -6.5t18 -15.5zM349 226l-112 307h-3l-109 -307h224zM600 0h-243v12h70l-73 200h-234l-70 -200h70v-12h-153v12h69l238 675h9l248 -675h69v-12z" />
    <glyph glyph-name="Aacute" unicode="&#xc1;" horiz-adv-x="579" 
d="M384 864q0 -13 -9 -20.5t-26 -18.5l-145 -90l-12 12l126 125q10 9 18 15.5t20 6.5q9 0 18.5 -8t9.5 -22zM349 226l-112 307h-3l-109 -307h224zM600 0h-243v12h70l-73 200h-234l-70 -200h70v-12h-153v12h69l238 675h9l248 -675h69v-12z" />
    <glyph glyph-name="Acircumflex" unicode="&#xc2;" horiz-adv-x="579" 
d="M426 678l-11 -12l-135 90l-136 -90l-11 12l112 118q18 18 34 18q19 0 34 -17zM349 226l-112 307h-3l-109 -307h224zM600 0h-243v12h70l-73 200h-234l-70 -200h70v-12h-153v12h69l238 675h9l248 -675h69v-12z" />
    <glyph glyph-name="Atilde" unicode="&#xc3;" horiz-adv-x="579" 
d="M437 812q-11 -31 -35 -54t-62 -23q-20 0 -37 6t-33 15q-12 7 -29 15t-32 8q-20 0 -34 -12t-20 -29l-17 7q12 31 35.5 55t62.5 24q20 0 36 -6.5t32 -14.5q14 -7 30 -15.5t31 -8.5q20 0 33.5 12.5t19.5 29.5zM349 226l-112 307h-3l-109 -307h224zM600 0h-243v12h70l-73 200
h-234l-70 -200h70v-12h-153v12h69l238 675h9l248 -675h69v-12z" />
    <glyph glyph-name="Adieresis" unicode="&#xc4;" horiz-adv-x="579" 
d="M232 776q0 -15 -11.5 -27t-27.5 -12q-17 0 -28 12t-11 27q0 16 11 28t28 12q16 0 27.5 -12t11.5 -28zM396 776q0 -15 -11.5 -27t-27.5 -12q-17 0 -28 12t-11 27q0 16 11 28t28 12q16 0 27.5 -12t11.5 -28zM349 226l-112 307h-3l-109 -307h224zM600 0h-243v12h70l-73 200
h-234l-70 -200h70v-12h-153v12h69l238 675h9l248 -675h69v-12z" />
    <glyph glyph-name="Aring" unicode="&#xc5;" horiz-adv-x="579" 
d="M327 813q0 21 -15 36.5t-37 15.5t-37 -15.5t-15 -36.5t15 -36.5t37 -15.5t37 15.5t15 36.5zM353 813q0 -32 -23 -55t-55 -23q-33 0 -55.5 23t-22.5 55t22.5 55t55.5 23q32 0 55 -23t23 -55zM349 226l-112 307h-3l-109 -307h224zM600 0h-243v12h70l-73 200h-234l-70 -200
h70v-12h-153v12h69l238 675h9l248 -675h69v-12z" />
    <glyph glyph-name="AE" unicode="&#xc6;" horiz-adv-x="981" 
d="M479 226v427l-295 -427h295zM967 0h-558v12h70v200h-304l-138 -200h70v-12h-152v12h60l447 648h-65v12h532v-168h-10q-7 77 -50.5 116.5t-102.5 39.5h-185v-308h49q29 0 54.5 9.5t44 27t29.5 43t11 57.5h10v-293h-10q0 69 -36.5 105.5t-102.5 36.5h-49v-326h170
q29 0 63 14t64 39.5t52 62t27 81.5h10v-209z" />
    <glyph glyph-name="Ccedilla" unicode="&#xc7;" horiz-adv-x="622" 
d="M570 8h-7q-20 21 -55.5 25.5t-70.5 -12.5q-25 -12 -56 -23t-69 -11l-37 -69l1 -2q21 10 50 10q12 0 23.5 -4t21.5 -11.5t16 -18t6 -24.5q0 -21 -9.5 -35t-23.5 -22.5t-31.5 -12t-32.5 -3.5q-23 0 -43 6t-36 13l7 15q5 -4 17 -6.5t32 -4.5q23 -2 39.5 10t16.5 38
q0 14 -11 25.5t-22 11.5q-14 0 -34 -5l-15 7l45 84q-52 6 -98.5 34t-82 73t-56 105t-20.5 130q0 89 29.5 155t74 110t95.5 66t95 22q40 0 70.5 -13t53.5 -26q24 -14 50 -11.5t40 18.5h7v-201h-11q-9 39 -26 78t-42.5 71t-61.5 52t-82 20q-47 0 -81 -28t-56.5 -76.5
t-33.5 -113t-11 -137.5q0 -72 11.5 -130.5t34 -100.5t55.5 -64.5t75 -22.5q30 0 67.5 18t72.5 50.5t62.5 78t36.5 101.5h10v-239z" />
    <glyph glyph-name="Egrave" unicode="&#xc8;" horiz-adv-x="617" 
d="M381 747l-12 -12l-145 90q-17 11 -26 18.5t-9 20.5q0 14 9.5 22t18.5 8q12 0 20 -6.5t18 -15.5zM579 0h-558v12h70v648h-70v12h520v-168h-10q-7 77 -50.5 116.5t-102.5 39.5h-185v-308h49q29 0 54.5 9.5t44 27t29.5 43t11 57.5h10v-293h-10q0 69 -36.5 105.5t-102.5 36.5
h-49v-326h170q29 0 63 14t64 39.5t52 62t27 81.5h10v-209z" />
    <glyph glyph-name="Eacute" unicode="&#xc9;" horiz-adv-x="617" 
d="M408 863q0 -13 -9 -20.5t-26 -18.5l-145 -90l-12 12l126 125q10 9 18 15.5t20 6.5q9 0 18.5 -8t9.5 -22zM579 0h-558v12h70v648h-70v12h520v-168h-10q-7 77 -50.5 116.5t-102.5 39.5h-185v-308h49q29 0 54.5 9.5t44 27t29.5 43t11 57.5h10v-293h-10q0 69 -36.5 105.5
t-102.5 36.5h-49v-326h170q29 0 63 14t64 39.5t52 62t27 81.5h10v-209z" />
    <glyph glyph-name="Ecircumflex" unicode="&#xca;" horiz-adv-x="617" 
d="M448 746l-11 -12l-135 90l-136 -90l-11 12l112 118q18 18 34 18q19 0 34 -17zM579 0h-558v12h70v648h-70v12h520v-168h-10q-7 77 -50.5 116.5t-102.5 39.5h-185v-308h49q29 0 54.5 9.5t44 27t29.5 43t11 57.5h10v-293h-10q0 69 -36.5 105.5t-102.5 36.5h-49v-326h170
q29 0 63 14t64 39.5t52 62t27 81.5h10v-209z" />
    <glyph glyph-name="Edieresis" unicode="&#xcb;" horiz-adv-x="617" 
d="M256 774q0 -15 -11.5 -27t-27.5 -12q-17 0 -28 12t-11 27q0 16 11 28t28 12q16 0 27.5 -12t11.5 -28zM420 774q0 -15 -11.5 -27t-27.5 -12q-17 0 -28 12t-11 27q0 16 11 28t28 12q16 0 27.5 -12t11.5 -28zM579 0h-558v12h70v648h-70v12h520v-168h-10q-7 77 -50.5 116.5
t-102.5 39.5h-185v-308h49q29 0 54.5 9.5t44 27t29.5 43t11 57.5h10v-293h-10q0 69 -36.5 105.5t-102.5 36.5h-49v-326h170q29 0 63 14t64 39.5t52 62t27 81.5h10v-209z" />
    <glyph glyph-name="Igrave" unicode="&#xcc;" horiz-adv-x="314" 
d="M233 747l-12 -12l-145 90q-17 11 -26 18.5t-9 20.5q0 14 9.5 22t18.5 8q12 0 20 -6.5t18 -15.5zM263 0h-242v12h70v648h-70v12h242v-12h-70v-648h70v-12z" />
    <glyph glyph-name="Iacute" unicode="&#xcd;" horiz-adv-x="314" 
d="M229 864q0 -13 -9 -20.5t-26 -18.5l-145 -90l-12 12l126 125q10 9 18 15.5t20 6.5q9 0 18.5 -8t9.5 -22zM263 0h-242v12h70v648h-70v12h242v-12h-70v-648h70v-12z" />
    <glyph glyph-name="Icircumflex" unicode="&#xce;" horiz-adv-x="314" 
d="M289 717l-11 -12l-135 90l-136 -90l-11 12l112 118q18 18 34 18q19 0 34 -17zM263 0h-242v12h70v648h-70v12h242v-12h-70v-648h70v-12z" />
    <glyph glyph-name="Idieresis" unicode="&#xcf;" horiz-adv-x="314" 
d="M100 774q0 -15 -11.5 -27t-27.5 -12q-17 0 -28 12t-11 27q0 16 11 28t28 12q16 0 27.5 -12t11.5 -28zM264 774q0 -15 -11.5 -27t-27.5 -12q-17 0 -28 12t-11 27q0 16 11 28t28 12q16 0 27.5 -12t11.5 -28zM263 0h-242v12h70v648h-70v12h242v-12h-70v-648h70v-12z" />
    <glyph glyph-name="Eth" unicode="&#xd0;" horiz-adv-x="648" 
d="M499 349q0 81 -16.5 140t-45.5 97t-69 56t-86 18h-89v-303h120v-52h-120v-293h82q57 0 99 25.5t70 70.5t41.5 107t13.5 134zM91 357v303h-70v12h262q71 0 130.5 -24.5t103 -68.5t68 -105.5t24.5 -136.5q0 -62 -20.5 -122.5t-63.5 -108t-108.5 -77t-155.5 -29.5h-240v12
h70v293h-116v52h116z" />
    <glyph glyph-name="Ntilde" unicode="&#xd1;" horiz-adv-x="618" 
d="M465 812q-11 -31 -35 -54t-62 -23q-20 0 -37 6t-33 15q-12 7 -29 15t-32 8q-20 0 -34 -12t-20 -29l-17 7q12 31 35.5 55t62.5 24q20 0 36 -6.5t32 -14.5q14 -7 30 -15.5t31 -8.5q20 0 33.5 12.5t19.5 29.5zM596 660h-70v-673h-7l-421 663h-3v-638h70v-12h-154v12h70v648
h-70v12h188l310 -485h3v473h-70v12h154v-12z" />
    <glyph glyph-name="Ograve" unicode="&#xd2;" 
d="M412 747l-12 -12l-145 90q-17 11 -26 18.5t-9 20.5q0 14 9.5 22t18.5 8q12 0 20 -6.5t18 -15.5zM541 332q0 76 -9.5 139t-32.5 107.5t-61 69t-94 24.5q-55 0 -93.5 -24.5t-63 -68t-35.5 -103t-11 -128.5q0 -97 12 -163.5t36.5 -107.5t62.5 -59t90 -18q99 0 149 81t50 251
zM648 324q0 -68 -23.5 -128.5t-65.5 -107t-99 -73.5t-123 -27q-68 0 -123.5 28t-95.5 75t-61.5 108t-21.5 128q0 60 21.5 123.5t61.5 115.5t97 85t129 33q75 0 132 -32.5t95.5 -84.5t57.5 -116t19 -127z" />
    <glyph glyph-name="Oacute" unicode="&#xd3;" 
d="M445 864q0 -13 -9 -20.5t-26 -18.5l-145 -90l-12 12l126 125q10 9 18 15.5t20 6.5q9 0 18.5 -8t9.5 -22zM541 332q0 76 -9.5 139t-32.5 107.5t-61 69t-94 24.5q-55 0 -93.5 -24.5t-63 -68t-35.5 -103t-11 -128.5q0 -97 12 -163.5t36.5 -107.5t62.5 -59t90 -18
q99 0 149 81t50 251zM648 324q0 -68 -23.5 -128.5t-65.5 -107t-99 -73.5t-123 -27q-68 0 -123.5 28t-95.5 75t-61.5 108t-21.5 128q0 60 21.5 123.5t61.5 115.5t97 85t129 33q75 0 132 -32.5t95.5 -84.5t57.5 -116t19 -127z" />
    <glyph glyph-name="Ocircumflex" unicode="&#xd4;" 
d="M491 742l-11 -12l-135 90l-136 -90l-11 12l112 118q18 18 34 18q19 0 34 -17zM541 332q0 76 -9.5 139t-32.5 107.5t-61 69t-94 24.5q-55 0 -93.5 -24.5t-63 -68t-35.5 -103t-11 -128.5q0 -97 12 -163.5t36.5 -107.5t62.5 -59t90 -18q99 0 149 81t50 251zM648 324
q0 -68 -23.5 -128.5t-65.5 -107t-99 -73.5t-123 -27q-68 0 -123.5 28t-95.5 75t-61.5 108t-21.5 128q0 60 21.5 123.5t61.5 115.5t97 85t129 33q75 0 132 -32.5t95.5 -84.5t57.5 -116t19 -127z" />
    <glyph glyph-name="Otilde" unicode="&#xd5;" 
d="M504 812q-11 -31 -35 -54t-62 -23q-20 0 -37 6t-33 15q-12 7 -29 15t-32 8q-20 0 -34 -12t-20 -29l-17 7q12 31 35.5 55t62.5 24q20 0 36 -6.5t32 -14.5q14 -7 30 -15.5t31 -8.5q20 0 33.5 12.5t19.5 29.5zM541 332q0 76 -9.5 139t-32.5 107.5t-61 69t-94 24.5
q-55 0 -93.5 -24.5t-63 -68t-35.5 -103t-11 -128.5q0 -97 12 -163.5t36.5 -107.5t62.5 -59t90 -18q99 0 149 81t50 251zM648 324q0 -68 -23.5 -128.5t-65.5 -107t-99 -73.5t-123 -27q-68 0 -123.5 28t-95.5 75t-61.5 108t-21.5 128q0 60 21.5 123.5t61.5 115.5t97 85t129 33
q75 0 132 -32.5t95.5 -84.5t57.5 -116t19 -127z" />
    <glyph glyph-name="Odieresis" unicode="&#xd6;" 
d="M300 776q0 -15 -11.5 -27t-27.5 -12q-17 0 -28 12t-11 27q0 16 11 28t28 12q16 0 27.5 -12t11.5 -28zM464 776q0 -15 -11.5 -27t-27.5 -12q-17 0 -28 12t-11 27q0 16 11 28t28 12q16 0 27.5 -12t11.5 -28zM541 332q0 76 -9.5 139t-32.5 107.5t-61 69t-94 24.5
q-55 0 -93.5 -24.5t-63 -68t-35.5 -103t-11 -128.5q0 -97 12 -163.5t36.5 -107.5t62.5 -59t90 -18q99 0 149 81t50 251zM648 324q0 -68 -23.5 -128.5t-65.5 -107t-99 -73.5t-123 -27q-68 0 -123.5 28t-95.5 75t-61.5 108t-21.5 128q0 60 21.5 123.5t61.5 115.5t97 85t129 33
q75 0 132 -32.5t95.5 -84.5t57.5 -116t19 -127z" />
    <glyph glyph-name="multiply" unicode="&#xd7;" horiz-adv-x="500" 
d="M100 497l149 -150l151 151l34 -34l-151 -151l151 -150l-34 -34l-151 150l-149 -149l-34 34l149 149l-149 150z" />
    <glyph glyph-name="Oslash" unicode="&#xd8;" 
d="M541 332q0 76 -9.5 139t-33.5 108l-295 -522q25 -30 59 -43.5t80 -13.5q99 0 149 81t50 251zM480 609q-23 30 -56 46.5t-80 16.5q-55 0 -93.5 -24.5t-63 -68t-35.5 -103t-11 -128.5q0 -182 44 -264zM648 324q0 -68 -23.5 -128.5t-65.5 -107t-99 -73.5t-123 -27
q-78 0 -149 41l-55 -97l-25 15l56 100q-61 47 -95 121t-34 159q0 60 21.5 123.5t61.5 115.5t97 85t129 33q45 0 83 -12t70 -34l47 83l27 -13l-50 -88q31 -26 55 -60t40 -73t24 -80.5t8 -82.5z" />
    <glyph glyph-name="Ugrave" unicode="&#xd9;" horiz-adv-x="641" 
d="M419 748l-12 -12l-145 90q-17 11 -26 18.5t-9 20.5q0 14 9.5 22t18.5 8q12 0 20 -6.5t18 -15.5zM616 660h-70v-458q0 -57 -18 -97.5t-49.5 -66t-73 -37.5t-88.5 -12q-44 0 -85.5 9.5t-73.5 31.5t-52 58t-20 89v483h-70v12h242v-12h-70v-541q0 -58 38 -88t104 -30
q29 0 64.5 9t66 31t51 59t20.5 94v466h-70v12h154v-12z" />
    <glyph glyph-name="Uacute" unicode="&#xda;" horiz-adv-x="641" 
d="M466 864q0 -13 -9 -20.5t-26 -18.5l-145 -90l-12 12l126 125q10 9 18 15.5t20 6.5q9 0 18.5 -8t9.5 -22zM616 660h-70v-458q0 -57 -18 -97.5t-49.5 -66t-73 -37.5t-88.5 -12q-44 0 -85.5 9.5t-73.5 31.5t-52 58t-20 89v483h-70v12h242v-12h-70v-541q0 -58 38 -88t104 -30
q29 0 64.5 9t66 31t51 59t20.5 94v466h-70v12h154v-12z" />
    <glyph glyph-name="Ucircumflex" unicode="&#xdb;" horiz-adv-x="641" 
d="M492 747l-11 -12l-135 90l-136 -90l-11 12l112 118q18 18 34 18q19 0 34 -17zM616 660h-70v-458q0 -57 -18 -97.5t-49.5 -66t-73 -37.5t-88.5 -12q-44 0 -85.5 9.5t-73.5 31.5t-52 58t-20 89v483h-70v12h242v-12h-70v-541q0 -58 38 -88t104 -30q29 0 64.5 9t66 31t51 59
t20.5 94v466h-70v12h154v-12z" />
    <glyph glyph-name="Udieresis" unicode="&#xdc;" horiz-adv-x="641" 
d="M298 774q0 -15 -11.5 -27t-27.5 -12q-17 0 -28 12t-11 27q0 16 11 28t28 12q16 0 27.5 -12t11.5 -28zM462 774q0 -15 -11.5 -27t-27.5 -12q-17 0 -28 12t-11 27q0 16 11 28t28 12q16 0 27.5 -12t11.5 -28zM616 660h-70v-458q0 -57 -18 -97.5t-49.5 -66t-73 -37.5
t-88.5 -12q-44 0 -85.5 9.5t-73.5 31.5t-52 58t-20 89v483h-70v12h242v-12h-70v-541q0 -58 38 -88t104 -30q29 0 64.5 9t66 31t51 59t20.5 94v466h-70v12h154v-12z" />
    <glyph glyph-name="Yacute" unicode="&#xdd;" horiz-adv-x="557" 
d="M557 660h-70l-149 -349v-299h70v-12h-242v12h70v292l-213 356h-70v12h251v-12h-70l197 -330l141 330h-70v12h155v-12zM429 848q0 -13 -9 -20.5t-26 -18.5l-145 -90l-12 12l126 125q10 9 18 15.5t20 6.5q9 0 18.5 -8t9.5 -22z" />
    <glyph glyph-name="Thorn" unicode="&#xde;" horiz-adv-x="545" 
d="M410 346q0 35 -8 65t-24.5 51.5t-41 33.5t-56.5 12h-77v-338h63q39 0 66.5 13t44.5 36t25 55.5t8 71.5zM283 0h-262v12h80v648h-80v12h262v-12h-80v-140h66q75 0 122.5 -17t74 -42.5t36 -55.5t9.5 -56q0 -29 -10 -62t-38 -62t-78 -48t-130 -19h-52v-146h80v-12z" />
    <glyph glyph-name="germandbls" unicode="&#xdf;" horiz-adv-x="525" 
d="M489 160q0 -36 -10 -67.5t-29.5 -54.5t-48.5 -36t-66 -13q-57 0 -89.5 25t-32.5 71q0 33 13 45.5t29 12.5q17 0 29 -10t12 -29q0 -18 -7 -25.5t-15.5 -12t-15.5 -9t-7 -17.5q0 -18 24 -28.5t62 -10.5q18 0 39 7t39 20.5t29.5 33t11.5 45.5q0 20 -10 36.5t-26 30t-37 25
t-42 22.5q-54 26 -84 46.5t-30 55.5q0 25 16 45.5t38 40.5q15 14 31 29.5t28.5 33.5t21 39.5t8.5 47.5q0 51 -19 85t-66 34q-44 0 -69.5 -19.5t-38.5 -50.5t-17 -71t-4 -80v-445h50v-12h-184v12h50v358h-50v14h50v39q0 53 15.5 101.5t43 85t67 58.5t87.5 22q38 0 64 -10
t42 -28.5t23 -43.5t7 -55q0 -23 -9 -41.5t-22.5 -34.5t-29.5 -29.5t-30 -25.5q-15 -14 -26.5 -27t-11.5 -24q0 -20 31.5 -40t77.5 -42q40 -20 64 -50.5t24 -78.5z" />
    <glyph glyph-name="agrave" unicode="&#xe0;" horiz-adv-x="464" 
d="M282 475l-12 -12l-145 90q-17 11 -26 18.5t-9 20.5q0 14 9.5 22t18.5 8q12 0 20 -6.5t18 -15.5zM274 202l-2 1q-23 -13 -43 -19.5t-44 -12.5q-14 -4 -27 -10t-23 -16.5t-16 -27t-6 -40.5q0 -36 15 -54.5t41 -18.5q13 0 31.5 6t34.5 20.5t27.5 38t11.5 59.5v74zM450 19
q-13 -15 -31 -22t-32 -7q-15 0 -32.5 4.5t-32.5 13.5t-27 23.5t-17 34.5h-2q-7 -14 -17.5 -28t-25 -25t-34.5 -17.5t-46 -6.5t-49.5 6.5t-41 20t-27.5 33.5t-10 47q0 25 11 44.5t42 29.5q20 7 42 9t49 5q35 5 63 14t42 25v86q0 37 -19.5 56.5t-54.5 19.5t-57 -16.5
t-22 -31.5q0 -10 4 -17t9 -14t8.5 -15t3.5 -21q0 -14 -11.5 -27t-32.5 -13q-25 0 -37 18.5t-12 38.5q0 26 13.5 46.5t35 35t48.5 22t53 7.5q30 0 57.5 -9.5t48.5 -27.5t33.5 -45t12.5 -62v-195q0 -23 12 -37.5t35 -14.5q12 0 22.5 6t19.5 14z" />
    <glyph glyph-name="aacute" unicode="&#xe1;" horiz-adv-x="464" 
d="M306 591q0 -13 -9 -20.5t-26 -18.5l-145 -90l-12 12l126 125q10 9 18 15.5t20 6.5q9 0 18.5 -8t9.5 -22zM274 202l-2 1q-23 -13 -43 -19.5t-44 -12.5q-14 -4 -27 -10t-23 -16.5t-16 -27t-6 -40.5q0 -36 15 -54.5t41 -18.5q13 0 31.5 6t34.5 20.5t27.5 38t11.5 59.5v74z
M450 19q-13 -15 -31 -22t-32 -7q-15 0 -32.5 4.5t-32.5 13.5t-27 23.5t-17 34.5h-2q-7 -14 -17.5 -28t-25 -25t-34.5 -17.5t-46 -6.5t-49.5 6.5t-41 20t-27.5 33.5t-10 47q0 25 11 44.5t42 29.5q20 7 42 9t49 5q35 5 63 14t42 25v86q0 37 -19.5 56.5t-54.5 19.5t-57 -16.5
t-22 -31.5q0 -10 4 -17t9 -14t8.5 -15t3.5 -21q0 -14 -11.5 -27t-32.5 -13q-25 0 -37 18.5t-12 38.5q0 26 13.5 46.5t35 35t48.5 22t53 7.5q30 0 57.5 -9.5t48.5 -27.5t33.5 -45t12.5 -62v-195q0 -23 12 -37.5t35 -14.5q12 0 22.5 6t19.5 14z" />
    <glyph glyph-name="acircumflex" unicode="&#xe2;" horiz-adv-x="464" 
d="M344 469l-11 -12l-135 90l-136 -90l-11 12l112 118q18 18 34 18q19 0 34 -17zM274 202l-2 1q-23 -13 -43 -19.5t-44 -12.5q-14 -4 -27 -10t-23 -16.5t-16 -27t-6 -40.5q0 -36 15 -54.5t41 -18.5q13 0 31.5 6t34.5 20.5t27.5 38t11.5 59.5v74zM450 19q-13 -15 -31 -22
t-32 -7q-15 0 -32.5 4.5t-32.5 13.5t-27 23.5t-17 34.5h-2q-7 -14 -17.5 -28t-25 -25t-34.5 -17.5t-46 -6.5t-49.5 6.5t-41 20t-27.5 33.5t-10 47q0 25 11 44.5t42 29.5q20 7 42 9t49 5q35 5 63 14t42 25v86q0 37 -19.5 56.5t-54.5 19.5t-57 -16.5t-22 -31.5q0 -10 4 -17
t9 -14t8.5 -15t3.5 -21q0 -14 -11.5 -27t-32.5 -13q-25 0 -37 18.5t-12 38.5q0 26 13.5 46.5t35 35t48.5 22t53 7.5q30 0 57.5 -9.5t48.5 -27.5t33.5 -45t12.5 -62v-195q0 -23 12 -37.5t35 -14.5q12 0 22.5 6t19.5 14z" />
    <glyph glyph-name="atilde" unicode="&#xe3;" horiz-adv-x="464" 
d="M354 542q-11 -31 -35 -54t-62 -23q-20 0 -37 6t-33 15q-12 7 -29 15t-32 8q-20 0 -34 -12t-20 -29l-17 7q12 31 35.5 55t62.5 24q20 0 36 -6.5t32 -14.5q14 -7 30 -15.5t31 -8.5q20 0 33.5 12.5t19.5 29.5zM274 202l-2 1q-23 -13 -43 -19.5t-44 -12.5q-14 -4 -27 -10
t-23 -16.5t-16 -27t-6 -40.5q0 -36 15 -54.5t41 -18.5q13 0 31.5 6t34.5 20.5t27.5 38t11.5 59.5v74zM450 19q-13 -15 -31 -22t-32 -7q-15 0 -32.5 4.5t-32.5 13.5t-27 23.5t-17 34.5h-2q-7 -14 -17.5 -28t-25 -25t-34.5 -17.5t-46 -6.5t-49.5 6.5t-41 20t-27.5 33.5t-10 47
q0 25 11 44.5t42 29.5q20 7 42 9t49 5q35 5 63 14t42 25v86q0 37 -19.5 56.5t-54.5 19.5t-57 -16.5t-22 -31.5q0 -10 4 -17t9 -14t8.5 -15t3.5 -21q0 -14 -11.5 -27t-32.5 -13q-25 0 -37 18.5t-12 38.5q0 26 13.5 46.5t35 35t48.5 22t53 7.5q30 0 57.5 -9.5t48.5 -27.5
t33.5 -45t12.5 -62v-195q0 -23 12 -37.5t35 -14.5q12 0 22.5 6t19.5 14z" />
    <glyph glyph-name="adieresis" unicode="&#xe4;" horiz-adv-x="464" 
d="M151 505q0 -15 -11.5 -27t-27.5 -12q-17 0 -28 12t-11 27q0 16 11 28t28 12q16 0 27.5 -12t11.5 -28zM315 505q0 -15 -11.5 -27t-27.5 -12q-17 0 -28 12t-11 27q0 16 11 28t28 12q16 0 27.5 -12t11.5 -28zM274 202l-2 1q-23 -13 -43 -19.5t-44 -12.5q-14 -4 -27 -10
t-23 -16.5t-16 -27t-6 -40.5q0 -36 15 -54.5t41 -18.5q13 0 31.5 6t34.5 20.5t27.5 38t11.5 59.5v74zM450 19q-13 -15 -31 -22t-32 -7q-15 0 -32.5 4.5t-32.5 13.5t-27 23.5t-17 34.5h-2q-7 -14 -17.5 -28t-25 -25t-34.5 -17.5t-46 -6.5t-49.5 6.5t-41 20t-27.5 33.5t-10 47
q0 25 11 44.5t42 29.5q20 7 42 9t49 5q35 5 63 14t42 25v86q0 37 -19.5 56.5t-54.5 19.5t-57 -16.5t-22 -31.5q0 -10 4 -17t9 -14t8.5 -15t3.5 -21q0 -14 -11.5 -27t-32.5 -13q-25 0 -37 18.5t-12 38.5q0 26 13.5 46.5t35 35t48.5 22t53 7.5q30 0 57.5 -9.5t48.5 -27.5
t33.5 -45t12.5 -62v-195q0 -23 12 -37.5t35 -14.5q12 0 22.5 6t19.5 14z" />
    <glyph glyph-name="aring" unicode="&#xe5;" horiz-adv-x="464" 
d="M248 539q0 21 -15 36.5t-37 15.5t-37 -15.5t-15 -36.5t15 -36.5t37 -15.5t37 15.5t15 36.5zM274 539q0 -32 -23 -55t-55 -23q-33 0 -55.5 23t-22.5 55t22.5 55t55.5 23q32 0 55 -23t23 -55zM274 202l-2 1q-23 -13 -43 -19.5t-44 -12.5q-14 -4 -27 -10t-23 -16.5t-16 -27
t-6 -40.5q0 -36 15 -54.5t41 -18.5q13 0 31.5 6t34.5 20.5t27.5 38t11.5 59.5v74zM450 19q-13 -15 -31 -22t-32 -7q-15 0 -32.5 4.5t-32.5 13.5t-27 23.5t-17 34.5h-2q-7 -14 -17.5 -28t-25 -25t-34.5 -17.5t-46 -6.5t-49.5 6.5t-41 20t-27.5 33.5t-10 47q0 25 11 44.5
t42 29.5q20 7 42 9t49 5q35 5 63 14t42 25v86q0 37 -19.5 56.5t-54.5 19.5t-57 -16.5t-22 -31.5q0 -10 4 -17t9 -14t8.5 -15t3.5 -21q0 -14 -11.5 -27t-32.5 -13q-25 0 -37 18.5t-12 38.5q0 26 13.5 46.5t35 35t48.5 22t53 7.5q30 0 57.5 -9.5t48.5 -27.5t33.5 -45t12.5 -62
v-195q0 -23 12 -37.5t35 -14.5q12 0 22.5 6t19.5 14z" />
    <glyph glyph-name="ae" unicode="&#xe6;" horiz-adv-x="674" 
d="M274 202l-2 1q-23 -13 -43 -19.5t-44 -12.5q-14 -4 -27 -10t-23 -16.5t-16 -27t-6 -40.5q0 -36 15 -54.5t41 -18.5q13 0 31.5 6t34.5 20.5t27.5 38t11.5 59.5v74zM556 227v42q0 33 -7.5 55t-20 35.5t-29 19.5t-35.5 6q-49 0 -73 -43t-29 -115h194zM361 213v-39
q0 -79 33 -126.5t86 -47.5q16 0 35.5 4.5t38 15.5t35 30t27.5 48l11 -5q-9 -29 -26 -49.5t-37.5 -33.5t-44 -18.5t-46.5 -5.5q-59 0 -102 28t-72 74q-3 3 -5 3q-4 0 -5 -3q-11 -23 -24 -41t-29 -31t-36 -20t-47 -7q-26 0 -49.5 6.5t-41 20t-27.5 33.5t-10 47q0 25 11 44.5
t42 29.5q20 7 42 9t49 5q35 5 63 14t42 25v86q0 37 -19.5 56.5t-54.5 19.5t-57 -16.5t-22 -31.5q0 -10 4 -17t9 -14t8.5 -15t3.5 -21q0 -14 -11.5 -27t-32.5 -13q-25 0 -37 18.5t-12 38.5q0 26 13.5 46.5t35 35t48.5 22t53 7.5q36 0 68 -13.5t54 -39.5q3 -3 5 -3t5 3
q25 24 57 38t68 14q46 0 80 -18.5t56.5 -46.5t34 -60t11.5 -59h-281z" />
    <glyph glyph-name="ccedilla" unicode="&#xe7;" horiz-adv-x="451" 
d="M397 276q0 -20 -12 -36t-32 -16q-22 0 -33.5 15t-11.5 35q0 17 5 29t5 28q0 18 -16.5 36.5t-53.5 18.5q-27 0 -50.5 -15.5t-40 -42.5t-26 -64t-9.5 -80q0 -94 33.5 -140t95.5 -46q13 0 29 2.5t33.5 10.5t34 22.5t31.5 38.5l10 -6q-24 -42 -62 -61.5t-84 -19.5h-14t-13 1
l-32 -59l1 -2q21 9 47 9q22 0 42 -14t20 -40q0 -20 -8.5 -33t-22 -20.5t-29.5 -11t-30 -3.5q-22 0 -41 5.5t-33 11.5l6 14q5 -3 16 -5.5t30 -4.5q24 -2 37.5 9.5t13.5 35.5q0 14 -9 24.5t-20 10.5q-14 0 -32 -5l-14 6l40 75q-40 8 -71 28t-52.5 47.5t-33 59.5t-11.5 65
q0 42 15.5 80t44.5 66.5t69 45.5t90 17q24 0 50 -8.5t48 -24.5t36 -38.5t14 -50.5z" />
    <glyph glyph-name="egrave" unicode="&#xe8;" horiz-adv-x="446" 
d="M302 475l-12 -12l-145 90q-17 11 -26 18.5t-9 20.5q0 14 9.5 22t18.5 8q12 0 20 -6.5t18 -15.5zM314 227v42q0 33 -7.5 55t-20 35.5t-29 19.5t-35.5 6q-49 0 -73 -43t-29 -115h194zM119 213v-39q0 -79 33 -126.5t86 -47.5q16 0 35.5 4.5t38 15.5t35 30t27.5 48l11 -5
q-9 -29 -26 -49.5t-37.5 -33.5t-44 -18.5t-46.5 -5.5q-45 0 -82.5 18t-63.5 46.5t-40.5 65t-14.5 73.5q0 44 14.5 82t40 66t60 44t73.5 16q46 0 80 -18.5t56.5 -46.5t34 -60t11.5 -59h-281z" />
    <glyph glyph-name="eacute" unicode="&#xe9;" horiz-adv-x="446" 
d="M316 591q0 -13 -9 -20.5t-26 -18.5l-145 -90l-12 12l126 125q10 9 18 15.5t20 6.5q9 0 18.5 -8t9.5 -22zM314 227v42q0 33 -7.5 55t-20 35.5t-29 19.5t-35.5 6q-49 0 -73 -43t-29 -115h194zM119 213v-39q0 -79 33 -126.5t86 -47.5q16 0 35.5 4.5t38 15.5t35 30t27.5 48
l11 -5q-9 -29 -26 -49.5t-37.5 -33.5t-44 -18.5t-46.5 -5.5q-45 0 -82.5 18t-63.5 46.5t-40.5 65t-14.5 73.5q0 44 14.5 82t40 66t60 44t73.5 16q46 0 80 -18.5t56.5 -46.5t34 -60t11.5 -59h-281z" />
    <glyph glyph-name="ecircumflex" unicode="&#xea;" horiz-adv-x="446" 
d="M365 469l-11 -12l-135 90l-136 -90l-11 12l112 118q18 18 34 18q19 0 34 -17zM314 227v42q0 33 -7.5 55t-20 35.5t-29 19.5t-35.5 6q-49 0 -73 -43t-29 -115h194zM119 213v-39q0 -79 33 -126.5t86 -47.5q16 0 35.5 4.5t38 15.5t35 30t27.5 48l11 -5q-9 -29 -26 -49.5
t-37.5 -33.5t-44 -18.5t-46.5 -5.5q-45 0 -82.5 18t-63.5 46.5t-40.5 65t-14.5 73.5q0 44 14.5 82t40 66t60 44t73.5 16q46 0 80 -18.5t56.5 -46.5t34 -60t11.5 -59h-281z" />
    <glyph glyph-name="edieresis" unicode="&#xeb;" horiz-adv-x="446" 
d="M172 505q0 -15 -11.5 -27t-27.5 -12q-17 0 -28 12t-11 27q0 16 11 28t28 12q16 0 27.5 -12t11.5 -28zM336 505q0 -15 -11.5 -27t-27.5 -12q-17 0 -28 12t-11 27q0 16 11 28t28 12q16 0 27.5 -12t11.5 -28zM314 227v42q0 33 -7.5 55t-20 35.5t-29 19.5t-35.5 6
q-49 0 -73 -43t-29 -115h194zM119 213v-39q0 -79 33 -126.5t86 -47.5q16 0 35.5 4.5t38 15.5t35 30t27.5 48l11 -5q-9 -29 -26 -49.5t-37.5 -33.5t-44 -18.5t-46.5 -5.5q-45 0 -82.5 18t-63.5 46.5t-40.5 65t-14.5 73.5q0 44 14.5 82t40 66t60 44t73.5 16q46 0 80 -18.5
t56.5 -46.5t34 -60t11.5 -59h-281z" />
    <glyph glyph-name="igrave" unicode="&#xec;" horiz-adv-x="252" 
d="M182 475l-12 -12l-145 90q-17 11 -26 18.5t-9 20.5q0 14 9.5 22t18.5 8q12 0 20 -6.5t18 -15.5zM201 0h-184v12h50v360h-50v12h134v-372h50v-12z" />
    <glyph glyph-name="iacute" unicode="&#xed;" horiz-adv-x="252" 
d="M191 591q0 -13 -9 -20.5t-26 -18.5l-145 -90l-12 12l126 125q10 9 18 15.5t20 6.5q9 0 18.5 -8t9.5 -22zM201 0h-184v12h50v360h-50v12h134v-372h50v-12z" />
    <glyph glyph-name="icircumflex" unicode="&#xee;" horiz-adv-x="252" 
d="M249 469l-11 -12l-135 90l-136 -90l-11 12l112 118q18 18 34 18q19 0 34 -17zM201 0h-184v12h50v360h-50v12h134v-372h50v-12z" />
    <glyph glyph-name="idieresis" unicode="&#xef;" horiz-adv-x="252" 
d="M58 505q0 -15 -11.5 -27t-27.5 -12q-17 0 -28 12t-11 27q0 16 11 28t28 12q16 0 27.5 -12t11.5 -28zM222 505q0 -15 -11.5 -27t-27.5 -12q-17 0 -28 12t-11 27q0 16 11 28t28 12q16 0 27.5 -12t11.5 -28zM201 0h-184v12h50v360h-50v12h134v-372h50v-12z" />
    <glyph glyph-name="eth" unicode="&#xf0;" horiz-adv-x="517" 
d="M381 185q0 62 -11 100.5t-29 60.5t-42 29.5t-49 7.5q-22 0 -45 -7t-41.5 -26.5t-30 -55t-11.5 -93.5q0 -62 9.5 -101t26.5 -61t40.5 -30t52.5 -8q24 0 47.5 7.5t41.5 28t29.5 56t11.5 92.5zM404 667l-79 -49q54 -52 91.5 -141t51.5 -219q2 -19 1 -46.5t-8.5 -58
t-22 -60.5t-39.5 -54t-61 -39t-87 -15q-48 0 -88.5 16t-70 44t-46 67t-16.5 85q0 39 16 75.5t44.5 64.5t69 45t89.5 17q29 0 55.5 -6.5t50.5 -17.5q-9 66 -30 119.5t-50 91.5l-123 -77l-25 40l115 72q-34 29 -74 39.5t-86 1.5q-9 -2 -19 -5.5t-20 -9.5l-8 12q11 8 27 14.5
t28 8.5q55 10 103 3t93 -36l93 58z" />
    <glyph glyph-name="ntilde" unicode="&#xf1;" horiz-adv-x="504" 
d="M473 0h-184v12h50v280q0 27 -6.5 44t-17 27.5t-24 14.5t-27.5 4q-18 0 -37.5 -11t-35.5 -29.5t-26 -44t-10 -55.5v-230h50v-12h-184v12h50v360h-50v12h134v-64l2 -1q18 30 49.5 54.5t77.5 24.5q69 0 104 -35.5t35 -112.5v-238h50v-12zM386 542q-11 -31 -35 -54t-62 -23
q-20 0 -37 6t-33 15q-12 7 -29 15t-32 8q-20 0 -34 -12t-20 -29l-17 7q12 31 35.5 55t62.5 24q20 0 36 -6.5t32 -14.5q14 -7 30 -15.5t31 -8.5q20 0 33.5 12.5t19.5 29.5z" />
    <glyph glyph-name="ograve" unicode="&#xf2;" horiz-adv-x="520" 
d="M338 475l-12 -12l-145 90q-17 11 -26 18.5t-9 20.5q0 14 9.5 22t18.5 8q12 0 20 -6.5t18 -15.5zM381 185q0 60 -11 99t-29 62t-42 32t-49 9q-22 0 -45 -8t-41.5 -29t-30 -57t-11.5 -92q0 -60 9.5 -99.5t26.5 -62.5t40.5 -32.5t52.5 -9.5q24 0 47.5 9t41.5 30.5t29.5 57.5
t11.5 91zM473 185q0 -45 -18 -82t-48.5 -63.5t-70.5 -40.5t-85 -14q-48 0 -88.5 16t-70 44t-46 67t-16.5 85q0 39 16 75.5t44.5 64.5t69 45t89.5 17q47 0 88 -15.5t71 -44t47.5 -67.5t17.5 -87z" />
    <glyph glyph-name="oacute" unicode="&#xf3;" horiz-adv-x="520" 
d="M351 591q0 -13 -9 -20.5t-26 -18.5l-145 -90l-12 12l126 125q10 9 18 15.5t20 6.5q9 0 18.5 -8t9.5 -22zM381 185q0 60 -11 99t-29 62t-42 32t-49 9q-22 0 -45 -8t-41.5 -29t-30 -57t-11.5 -92q0 -60 9.5 -99.5t26.5 -62.5t40.5 -32.5t52.5 -9.5q24 0 47.5 9t41.5 30.5
t29.5 57.5t11.5 91zM473 185q0 -45 -18 -82t-48.5 -63.5t-70.5 -40.5t-85 -14q-48 0 -88.5 16t-70 44t-46 67t-16.5 85q0 39 16 75.5t44.5 64.5t69 45t89.5 17q47 0 88 -15.5t71 -44t47.5 -67.5t17.5 -87z" />
    <glyph glyph-name="ocircumflex" unicode="&#xf4;" horiz-adv-x="520" 
d="M394 469l-11 -12l-135 90l-136 -90l-11 12l112 118q18 18 34 18q19 0 34 -17zM381 185q0 60 -11 99t-29 62t-42 32t-49 9q-22 0 -45 -8t-41.5 -29t-30 -57t-11.5 -92q0 -60 9.5 -99.5t26.5 -62.5t40.5 -32.5t52.5 -9.5q24 0 47.5 9t41.5 30.5t29.5 57.5t11.5 91zM473 185
q0 -45 -18 -82t-48.5 -63.5t-70.5 -40.5t-85 -14q-48 0 -88.5 16t-70 44t-46 67t-16.5 85q0 39 16 75.5t44.5 64.5t69 45t89.5 17q47 0 88 -15.5t71 -44t47.5 -67.5t17.5 -87z" />
    <glyph glyph-name="otilde" unicode="&#xf5;" horiz-adv-x="520" 
d="M401 542q-11 -31 -35 -54t-62 -23q-20 0 -37 6t-33 15q-12 7 -29 15t-32 8q-20 0 -34 -12t-20 -29l-17 7q12 31 35.5 55t62.5 24q20 0 36 -6.5t32 -14.5q14 -7 30 -15.5t31 -8.5q20 0 33.5 12.5t19.5 29.5zM381 185q0 60 -11 99t-29 62t-42 32t-49 9q-22 0 -45 -8
t-41.5 -29t-30 -57t-11.5 -92q0 -60 9.5 -99.5t26.5 -62.5t40.5 -32.5t52.5 -9.5q24 0 47.5 9t41.5 30.5t29.5 57.5t11.5 91zM473 185q0 -45 -18 -82t-48.5 -63.5t-70.5 -40.5t-85 -14q-48 0 -88.5 16t-70 44t-46 67t-16.5 85q0 39 16 75.5t44.5 64.5t69 45t89.5 17
q47 0 88 -15.5t71 -44t47.5 -67.5t17.5 -87z" />
    <glyph glyph-name="odieresis" unicode="&#xf6;" horiz-adv-x="520" 
d="M201 505q0 -15 -11.5 -27t-27.5 -12q-17 0 -28 12t-11 27q0 16 11 28t28 12q16 0 27.5 -12t11.5 -28zM365 505q0 -15 -11.5 -27t-27.5 -12q-17 0 -28 12t-11 27q0 16 11 28t28 12q16 0 27.5 -12t11.5 -28zM381 185q0 60 -11 99t-29 62t-42 32t-49 9q-22 0 -45 -8
t-41.5 -29t-30 -57t-11.5 -92q0 -60 9.5 -99.5t26.5 -62.5t40.5 -32.5t52.5 -9.5q24 0 47.5 9t41.5 30.5t29.5 57.5t11.5 91zM473 185q0 -45 -18 -82t-48.5 -63.5t-70.5 -40.5t-85 -14q-48 0 -88.5 16t-70 44t-46 67t-16.5 85q0 39 16 75.5t44.5 64.5t69 45t89.5 17
q47 0 88 -15.5t71 -44t47.5 -67.5t17.5 -87z" />
    <glyph glyph-name="divide" unicode="&#xf7;" horiz-adv-x="538" 
d="M313 122q0 -20 -15.5 -36t-36.5 -16t-36.5 15.5t-15.5 36.5q0 22 15.5 37t36.5 15t36.5 -15.5t15.5 -36.5zM481 276h-440v52h440v-52zM313 482q0 -20 -15.5 -36t-36.5 -16t-36.5 15.5t-15.5 36.5q0 22 15.5 37t36.5 15t36.5 -15.5t15.5 -36.5z" />
    <glyph glyph-name="oslash" unicode="&#xf8;" horiz-adv-x="520" 
d="M330 358q-17 16 -37.5 22.5t-42.5 6.5t-45 -8t-41.5 -29t-30 -57t-11.5 -92q0 -57 8.5 -95t23.5 -61zM381 185q0 52 -8.5 88t-22.5 59l-175 -311q16 -14 35 -19t41 -5q24 0 47.5 9t41.5 30.5t29.5 57.5t11.5 91zM473 185q0 -45 -18 -82t-48.5 -63.5t-70.5 -40.5t-85 -14
q-49 0 -88 16l-39 -69l-26 15l38 66q-49 27 -77.5 74.5t-28.5 109.5q0 39 16 75.5t44.5 64.5t69 45t89.5 17q51 0 95 -18l39 70l27 -13l-40 -70q47 -27 75 -74t28 -109z" />
    <glyph glyph-name="ugrave" unicode="&#xf9;" horiz-adv-x="496" 
d="M316 472l-12 -12l-145 90q-17 11 -26 18.5t-9 20.5q0 14 9.5 22t18.5 8q12 0 20 -6.5t18 -15.5zM461 0h-134v68l-2 1q-17 -33 -47 -57.5t-73 -24.5q-29 0 -55 6.5t-45.5 22.5t-31 42.5t-11.5 65.5v248h-50v12h134v-314q0 -37 17.5 -53.5t42.5 -16.5q22 0 43.5 10.5
t39 29.5t28 46.5t10.5 60.5v225h-50v12h134v-372h50v-12z" />
    <glyph glyph-name="uacute" unicode="&#xfa;" horiz-adv-x="496" 
d="M337 591q0 -13 -9 -20.5t-26 -18.5l-145 -90l-12 12l126 125q10 9 18 15.5t20 6.5q9 0 18.5 -8t9.5 -22zM461 0h-134v68l-2 1q-17 -33 -47 -57.5t-73 -24.5q-29 0 -55 6.5t-45.5 22.5t-31 42.5t-11.5 65.5v248h-50v12h134v-314q0 -37 17.5 -53.5t42.5 -16.5
q22 0 43.5 10.5t39 29.5t28 46.5t10.5 60.5v225h-50v12h134v-372h50v-12z" />
    <glyph glyph-name="ucircumflex" unicode="&#xfb;" horiz-adv-x="496" 
d="M376 469l-11 -12l-135 90l-136 -90l-11 12l112 118q18 18 34 18q19 0 34 -17zM461 0h-134v68l-2 1q-17 -33 -47 -57.5t-73 -24.5q-29 0 -55 6.5t-45.5 22.5t-31 42.5t-11.5 65.5v248h-50v12h134v-314q0 -37 17.5 -53.5t42.5 -16.5q22 0 43.5 10.5t39 29.5t28 46.5
t10.5 60.5v225h-50v12h134v-372h50v-12z" />
    <glyph glyph-name="udieresis" unicode="&#xfc;" horiz-adv-x="496" 
d="M190 505q0 -15 -11.5 -27t-27.5 -12q-17 0 -28 12t-11 27q0 16 11 28t28 12q16 0 27.5 -12t11.5 -28zM354 505q0 -15 -11.5 -27t-27.5 -12q-17 0 -28 12t-11 27q0 16 11 28t28 12q16 0 27.5 -12t11.5 -28zM461 0h-134v68l-2 1q-17 -33 -47 -57.5t-73 -24.5q-29 0 -55 6.5
t-45.5 22.5t-31 42.5t-11.5 65.5v248h-50v12h134v-314q0 -37 17.5 -53.5t42.5 -16.5q22 0 43.5 10.5t39 29.5t28 46.5t10.5 60.5v225h-50v12h134v-372h50v-12z" />
    <glyph glyph-name="yacute" unicode="&#xfd;" horiz-adv-x="442" 
d="M408 372h-50l-221 -548q-22 -55 -46 -77t-63 -22q-17 0 -31 7t-24.5 18.5t-16.5 25t-6 26.5q0 18 10 33.5t32 15.5q16 0 25.5 -12t9.5 -26q0 -16 -5 -26t-13 -17q-14 -12 -2 -24q8 -8 26 -8q7 0 18 2.5t22.5 10t23.5 22.5t22 41l72 180l-161 378h-50v12h189v-12h-50
l114 -265h5l106 265h-50v12h114v-12zM351 591q0 -13 -9 -20.5t-26 -18.5l-145 -90l-12 12l126 125q10 9 18 15.5t20 6.5q9 0 18.5 -8t9.5 -22z" />
    <glyph glyph-name="thorn" unicode="&#xfe;" horiz-adv-x="524" 
d="M389 174q0 46 -6 85.5t-19.5 67.5t-36 44t-55.5 16q-23 0 -45 -10.5t-39 -27t-27 -37.5t-10 -42v-143q0 -23 9.5 -46t25 -41t36.5 -29.5t44 -11.5q24 0 46 9t39.5 29.5t27.5 54t10 82.5zM477 196q0 -48 -19.5 -87t-50 -66t-67.5 -41.5t-71 -14.5q-23 0 -41 7t-32 18
t-24.5 25t-18.5 28l-2 -1v-322h50v-12h-184v12h50v919h-50v12h134v-346l2 -1q25 36 53.5 54.5t76.5 18.5q44 0 80 -18.5t61.5 -48t39 -65.5t13.5 -71z" />
    <glyph glyph-name="ydieresis" unicode="&#xff;" horiz-adv-x="432" 
d="M159 505q0 -15 -11.5 -27t-27.5 -12q-17 0 -28 12t-11 27q0 16 11 28t28 12q16 0 27.5 -12t11.5 -28zM323 505q0 -15 -11.5 -27t-27.5 -12q-17 0 -28 12t-11 27q0 16 11 28t28 12q16 0 27.5 -12t11.5 -28zM408 372h-50l-221 -548q-22 -55 -46 -77t-63 -22q-17 0 -31 7
t-24.5 18.5t-16.5 25t-6 26.5q0 18 10 33.5t32 15.5q16 0 25.5 -12t9.5 -26q0 -16 -5 -26t-13 -17q-14 -12 -2 -24q8 -8 26 -8q7 0 18 2.5t22.5 10t23.5 22.5t22 41l72 180l-161 378h-50v12h189v-12h-50l114 -265h5l106 265h-50v12h114v-12z" />
    <glyph glyph-name="OE" unicode="&#x152;" horiz-adv-x="1045" 
d="M541 332q0 76 -9.5 139t-32.5 107.5t-61 69t-94 24.5q-55 0 -93.5 -24.5t-63 -68t-35.5 -103t-11 -128.5q0 -97 12 -163.5t36.5 -107.5t62.5 -59t90 -18q99 0 149 81t50 251zM1030 0h-546v12h58v60q-41 -39 -92.5 -61.5t-112.5 -22.5q-68 0 -123.5 28t-95.5 75t-61.5 108
t-21.5 128q0 60 21.5 123.5t61.5 115.5t97 85t129 33q63 0 112 -22.5t86 -60.5v59h-58v12h508v-168h-10q-7 77 -50.5 116.5t-102.5 39.5h-185v-308h49q29 0 54.5 9.5t44 27t29.5 43t11 57.5h10v-293h-10q0 69 -36.5 105.5t-102.5 36.5h-49v-326h170q29 0 63 14t64 39.5
t52 62t27 81.5h10v-209z" />
    <glyph glyph-name="oe" unicode="&#x153;" horiz-adv-x="775" 
d="M381 185q0 60 -11 99t-29 62t-42 32t-49 9q-22 0 -45 -8t-41.5 -29t-30 -57t-11.5 -92q0 -60 9.5 -99.5t26.5 -62.5t40.5 -32.5t52.5 -9.5q24 0 47.5 9t41.5 30.5t29.5 57.5t11.5 91zM665 227v42q0 33 -7.5 55t-20 35.5t-29 19.5t-35.5 6q-49 0 -73 -43t-29 -115h194z
M470 213v-39q0 -79 33 -126.5t86 -47.5q16 0 35.5 4.5t38 15.5t35 30t27.5 48l11 -5q-9 -29 -26 -49.5t-37.5 -33.5t-44 -18.5t-46.5 -5.5q-50 0 -89.5 21t-65.5 54q-30 -36 -76 -56t-100 -20q-48 0 -88.5 16t-70 44t-46 67t-16.5 85q0 39 16 75.5t44.5 64.5t69 45t89.5 17
q54 0 99 -20.5t76 -55.5q26 34 63.5 54t81.5 20q46 0 80 -18.5t56.5 -46.5t34 -60t11.5 -59h-281z" />
    <glyph glyph-name="Scaron" unicode="&#x160;" horiz-adv-x="550" 
d="M519 190q0 -27 -13 -62t-41 -65.5t-72 -51.5t-106 -21q-30 0 -51.5 4.5t-39.5 11t-35.5 14t-38.5 13.5q-37 10 -55.5 2.5t-28.5 -24.5h-8v207h12q12 -41 34.5 -80t53 -69t67 -48t77.5 -18q77 0 117 39.5t40 105.5q0 45 -25.5 79.5t-78.5 54.5l-126 47q-69 26 -106 67.5
t-37 113.5q0 37 16 69t43.5 55t64 36t78.5 13q34 0 59.5 -7.5t48.5 -15.5q23 -9 43.5 -5.5t34.5 21.5h7v-168h-12q-4 26 -17.5 55t-37 53t-55.5 39.5t-72 15.5q-21 0 -44.5 -5.5t-43 -19.5t-32 -37t-12.5 -57q0 -44 23.5 -73t80.5 -50l140 -51q69 -25 108.5 -70.5
t39.5 -117.5zM416 866l-113 -119q-15 -17 -34 -17q-16 0 -34 18l-112 118l11 12l136 -90l135 90z" />
    <glyph glyph-name="scaron" unicode="&#x161;" horiz-adv-x="396" 
d="M355 109q0 -24 -9.5 -46t-27.5 -38.5t-43 -26.5t-55 -10q-31 0 -52 7.5t-40 16.5q-23 11 -44 6.5t-31 -18.5h-8v148h10q9 -34 26 -61t39.5 -46.5t47.5 -30t51 -10.5q42 0 63.5 21t21.5 52q0 26 -19.5 46t-56.5 29l-71 18q-46 11 -77 40.5t-31 72.5q0 50 34 83.5t92 33.5
q23 0 42.5 -5.5t34.5 -10.5t31.5 -4t24.5 10h8v-131h-10q-4 30 -16.5 53.5t-30 40.5t-38.5 26t-41 9q-14 0 -28.5 -3.5t-26 -11t-19 -20t-7.5 -30.5q0 -26 15 -42t53 -27l77 -21q60 -17 85.5 -48.5t25.5 -71.5zM326 601l-113 -119q-15 -17 -34 -17q-16 0 -34 18l-112 118
l11 12l136 -90l135 90z" />
    <glyph glyph-name="Ydieresis" unicode="&#x178;" horiz-adv-x="557" 
d="M243 778q0 -15 -11.5 -27t-27.5 -12q-17 0 -28 12t-11 27q0 16 11 28t28 12q16 0 27.5 -12t11.5 -28zM407 778q0 -15 -11.5 -27t-27.5 -12q-17 0 -28 12t-11 27q0 16 11 28t28 12q16 0 27.5 -12t11.5 -28zM557 660h-70l-149 -349v-299h70v-12h-242v12h70v292l-213 356
h-70v12h251v-12h-70l197 -330l141 330h-70v12h155v-12z" />
    <glyph glyph-name="Zcaron" unicode="&#x17d;" horiz-adv-x="581" 
d="M541 0h-524l376 659h-133q-40 0 -72 -15t-56 -40t-40.5 -59t-25.5 -71h-10v198h460l-378 -659h184q31 0 63 13.5t61 38.5t51.5 59t33.5 75h10v-199zM431 862l-113 -119q-15 -17 -34 -17q-16 0 -34 18l-112 118l11 12l136 -90l135 90z" />
    <glyph glyph-name="zcaron" unicode="&#x17e;" horiz-adv-x="436" 
d="M384 0h-363l249 370h-61q-57 0 -93.5 -32.5t-44.5 -88.5h-10v135h317l-250 -370h81q63 0 108.5 34t56.5 96h10v-144zM367 602l-113 -119q-15 -17 -34 -17q-16 0 -34 18l-112 118l11 12l136 -90l135 90z" />
    <glyph glyph-name="florin" unicode="&#x192;" horiz-adv-x="437" 
d="M413 549q0 -23 -11 -38t-33 -15t-31.5 13t-8.5 30q0 11 4 17t8 11t7.5 10t3.5 13q0 5 -6.5 10t-17.5 5q-23 0 -38.5 -14t-25 -38.5t-15.5 -58.5t-10 -74l-14 -120h83v-14h-86l-24 -181q-8 -61 -22 -118.5t-36 -102.5t-53.5 -72.5t-74.5 -27.5q-30 0 -51.5 11.5
t-21.5 46.5q0 20 12 31t29 11q19 0 28 -10.5t9 -27.5q0 -11 -5 -18.5t-5 -18.5q0 -12 10 -12q13 0 27.5 6.5t27.5 25t23.5 52.5t16.5 88l33 317h-76v14h79l10 66q5 35 17.5 78.5t34.5 82t53.5 65t75.5 26.5q27 0 50.5 -19t23.5 -50z" />
    <glyph glyph-name="circumflex" unicode="&#x2c6;" horiz-adv-x="408" 
d="M343 469l-11 -12l-135 90l-136 -90l-11 12l112 118q18 18 34 18q19 0 34 -17z" />
    <glyph glyph-name="tilde" unicode="&#x2dc;" horiz-adv-x="418" 
d="M349 542q-11 -31 -35 -54t-62 -23q-20 0 -37 6t-33 15q-12 7 -29 15t-32 8q-20 0 -34 -12t-20 -29l-17 7q12 31 35.5 55t62.5 24q20 0 36 -6.5t32 -14.5q14 -7 30 -15.5t31 -8.5q20 0 33.5 12.5t19.5 29.5z" />
    <glyph glyph-name="endash" unicode="&#x2013;" horiz-adv-x="525" 
d="M460 276h-430v52h430v-52z" />
    <glyph glyph-name="emdash" unicode="&#x2014;" horiz-adv-x="764" 
d="M715 276h-685v52h685v-52z" />
    <glyph glyph-name="quoteleft" unicode="&#x2018;" horiz-adv-x="254" 
d="M137 548q0 -20 -13 -33.5t-30 -13.5q-24 0 -38.5 21t-14.5 57q0 21 5.5 37t14.5 27.5t19.5 18.5t19.5 10l4 -10q-18 -7 -32.5 -24.5t-14.5 -38.5q0 -7 1 -14.5t5 -14.5h2q5 9 14 15.5t22 6.5q14 0 25 -12t11 -32z" />
    <glyph glyph-name="quoteright" unicode="&#x2019;" horiz-adv-x="254" 
d="M137 593q0 -21 -5.5 -37t-14.5 -27.5t-19.5 -18.5t-19.5 -10l-4 10q18 7 32.5 24.5t14.5 38.5q0 7 -1 14.5t-5 14.5h-2q-5 -9 -14 -15.5t-22 -6.5q-14 0 -25 12t-11 32t13 33.5t30 13.5q24 0 38.5 -21t14.5 -57z" />
    <glyph glyph-name="quotesinglbase" unicode="&#x201a;" horiz-adv-x="237" 
d="M137 10q0 -21 -5.5 -37t-14.5 -27.5t-19.5 -18.5t-19.5 -10l-4 10q18 7 32.5 24.5t14.5 38.5q0 7 -1 14.5t-5 14.5h-2q-5 -9 -14 -15.5t-22 -6.5q-14 0 -25 12t-11 32t13 33.5t30 13.5q24 0 38.5 -21t14.5 -57z" />
    <glyph glyph-name="quotedblleft" unicode="&#x201c;" horiz-adv-x="427" 
d="M137 548q0 -20 -13 -33.5t-30 -13.5q-24 0 -38.5 21t-14.5 57q0 21 5.5 37t14.5 27.5t19.5 18.5t19.5 10l4 -10q-18 -7 -32.5 -24.5t-14.5 -38.5q0 -7 1 -14.5t5 -14.5h2q5 9 14 15.5t22 6.5q14 0 25 -12t11 -32zM253 548q0 -20 -13 -33.5t-30 -13.5q-24 0 -38.5 21
t-14.5 57q0 21 5.5 37t14.5 27.5t19.5 18.5t19.5 10l4 -10q-18 -7 -32.5 -24.5t-14.5 -38.5q0 -7 1 -14.5t5 -14.5h2q5 9 14 15.5t22 6.5q14 0 25 -12t11 -32z" />
    <glyph glyph-name="quotedblright" unicode="&#x201d;" horiz-adv-x="427" 
d="M137 593q0 -21 -5.5 -37t-14.5 -27.5t-19.5 -18.5t-19.5 -10l-4 10q18 7 32.5 24.5t14.5 38.5q0 7 -1 14.5t-5 14.5h-2q-5 -9 -14 -15.5t-22 -6.5q-14 0 -25 12t-11 32t13 33.5t30 13.5q24 0 38.5 -21t14.5 -57zM253 593q0 -21 -5.5 -37t-14.5 -27.5t-19.5 -18.5
t-19.5 -10l-4 10q18 7 32.5 24.5t14.5 38.5q0 7 -1 14.5t-5 14.5h-2q-5 -9 -14 -15.5t-22 -6.5q-14 0 -25 12t-11 32t13 33.5t30 13.5q24 0 38.5 -21t14.5 -57z" />
    <glyph glyph-name="quotedblbase" unicode="&#x201e;" horiz-adv-x="427" 
d="M137 10q0 -21 -5.5 -37t-14.5 -27.5t-19.5 -18.5t-19.5 -10l-4 10q18 7 32.5 24.5t14.5 38.5q0 7 -1 14.5t-5 14.5h-2q-5 -9 -14 -15.5t-22 -6.5q-14 0 -25 12t-11 32t13 33.5t30 13.5q24 0 38.5 -21t14.5 -57zM253 10q0 -21 -5.5 -37t-14.5 -27.5t-19.5 -18.5t-19.5 -10
l-4 10q18 7 32.5 24.5t14.5 38.5q0 7 -1 14.5t-5 14.5h-2q-5 -9 -14 -15.5t-22 -6.5q-14 0 -25 12t-11 32t13 33.5t30 13.5q24 0 38.5 -21t14.5 -57z" />
    <glyph glyph-name="dagger" unicode="&#x2020;" horiz-adv-x="330" 
d="M232 298q0 9 -2 17.5t-8.5 16t-19.5 14t-35 13.5v-124q36 5 50.5 24.5t14.5 38.5zM143 555q-20 -4 -38.5 -19t-18.5 -39q0 -35 57 -58v116zM278 331q0 -16 -7 -33.5t-21.5 -33t-35 -26.5t-47.5 -15v-95h-24v94q-23 0 -44 5.5t-37.5 15t-26.5 22.5t-10 29q0 18 12 28.5
t27 10.5q21 0 29.5 -10.5t8.5 -21.5q0 -17 -11 -25q-5 -4 -8 -7t-3 -8q0 -12 18.5 -19.5t44.5 -7.5v131q-56 14 -78.5 37.5t-22.5 57.5q0 19 8 37t22 33t32 24.5t39 12.5v79h24v-78q15 -1 32 -5.5t31.5 -13t23.5 -20t9 -26.5q0 -16 -11 -24t-22 -8q-12 0 -21.5 7.5
t-9.5 24.5q0 8 4 16t4 13q0 6 -10 14t-30 10v-126q8 -2 11 -3q50 -14 75 -33.5t25 -62.5z" />
    <glyph glyph-name="daggerdbl" unicode="&#x2021;" horiz-adv-x="507" 
d="M328 603q0 -25 -12.5 -36.5t-29.5 -11.5q-14 0 -25.5 12.5t-11.5 35.5q0 17 8 35q9 17 -1 27q-5 5 -15.5 7.5t-20.5 2.5q-32 0 -56.5 -17.5t-28.5 -52.5q-3 -25 -2.5 -44.5t5.5 -40.5q3 -14 5.5 -31.5t4 -36t2.5 -36t1 -32.5h52v-14h-52v-358h51v-12h-185v12h50v358h-50
v14h50v87q0 55 13 95.5t34.5 67.5t50 40t59.5 13q13 0 31 -4t34 -13.5t27.5 -25.5t11.5 -41zM488 104q-2 -23 -8 -44t-18 -37.5t-30 -26t-43 -9.5q-21 0 -39.5 5.5t-32 19.5t-21 37t-7.5 59v262h-60v14h60v109q18 7 41.5 19.5t37.5 23.5l5 -2v-150h65v-14h-65v-323
q0 -15 6 -29.5t24 -14.5q10 0 22 5.5t22.5 17.5t18.5 31.5t10 48.5z" />
    <glyph glyph-name="bullet" unicode="&#x2022;" horiz-adv-x="336" 
d="M251 275q0 -26 -7.5 -48.5t-21 -39t-31.5 -26.5t-38 -10t-38 10t-31.5 26.5t-21 39t-7.5 48.5q0 25 7.5 48t21 39.5t31.5 26.5t38 10t38 -10t31.5 -26.5t21 -39.5t7.5 -48z" />
    <glyph glyph-name="ellipsis" unicode="&#x2026;" horiz-adv-x="594" 
d="M136 57q0 -26 -14.5 -44t-34.5 -18t-34.5 18t-14.5 44t14.5 44t34.5 18t34.5 -18t14.5 -44zM310 57q0 -26 -14.5 -44t-34.5 -18t-34.5 18t-14.5 44t14.5 44t34.5 18t34.5 -18t14.5 -44zM484 57q0 -26 -14.5 -44t-34.5 -18t-34.5 18t-14.5 44t14.5 44t34.5 18t34.5 -18
t14.5 -44z" />
    <glyph glyph-name="perthousand" unicode="&#x2030;" horiz-adv-x="1048" 
d="M568 168q0 53 -6.5 85.5t-18 50.5t-27 24t-33.5 6q-15 0 -30 -6t-27 -23.5t-19 -49t-7 -82.5q0 -56 5.5 -90.5t15.5 -53.5t24.5 -25.5t32.5 -6.5t34 6.5t28.5 25.5t20 52t7.5 87zM247 505q0 53 -6.5 85.5t-18 50.5t-27 24t-33.5 6q-15 0 -30 -6t-27 -23.5t-19 -49
t-7 -82.5q0 -56 5.5 -90.5t15.5 -53.5t24.5 -25.5t32.5 -6.5t34 6.5t28.5 25.5t20 52t7.5 87zM948 168q0 53 -6.5 85.5t-18 50.5t-27 24t-33.5 6q-15 0 -30 -6t-27 -23.5t-19 -49t-7 -82.5q0 -56 5.5 -90.5t15.5 -53.5t24.5 -25.5t32.5 -6.5t34 6.5t28.5 25.5t20 52t7.5 87z
M642 174q0 -42 -15 -77t-39 -59.5t-53 -38.5t-57 -14t-55.5 14t-49 38.5t-34.5 58t-13 73.5q0 36 13.5 68t35.5 56t50 38t58 14q28 0 56.5 -12.5t51.5 -35.5t37 -54.5t14 -68.5zM576 672l-479 -672h-28l479 672h28zM321 511q0 -42 -15 -77t-39 -59.5t-53 -38.5t-57 -14
t-55.5 14t-49 38.5t-34.5 58t-13 73.5q0 36 13.5 68t35.5 56t50 38t58 14q28 0 56.5 -12.5t51.5 -35.5t37 -54.5t14 -68.5zM1022 174q0 -42 -15 -77t-39 -59.5t-53 -38.5t-57 -14t-55.5 14t-49 38.5t-34.5 58t-13 73.5q0 36 13.5 68t35.5 56t50 38t58 14q28 0 56.5 -12.5
t51.5 -35.5t37 -54.5t14 -68.5z" />
    <glyph glyph-name="guilsinglleft" unicode="&#x2039;" horiz-adv-x="244" 
d="M192 67l-14 -12l-138 119q-20 17 -20 36q0 10 5.5 18.5t13.5 17.5l139 120l14 -12l-112 -143z" />
    <glyph glyph-name="guilsinglright" unicode="&#x203a;" horiz-adv-x="244" 
d="M190 210q0 -19 -20 -36l-138 -119l-14 12l112 144l-112 143l14 12l139 -120q8 -9 13.5 -17.5t5.5 -18.5z" />
    <glyph glyph-name="Euro" unicode="&#x20ac;" horiz-adv-x="529" 
d="M165 227q6 -52 20.5 -94t36.5 -71t49.5 -45t59.5 -16q16 0 35 3t37.5 11t35.5 21.5t30 33.5l10 -7q-24 -42 -66 -58.5t-86 -16.5t-85 17.5t-74.5 49t-57.5 75.5t-34 97h-101v24h97q-3 22 -3 47t3 48h-84v24h88q12 62 40.5 108.5t65.5 78t77 47t75 15.5q27 0 52.5 -9
t46 -24.5t32.5 -36.5t12 -45q0 -19 -13 -36t-33 -17q-22 0 -32.5 12t-10.5 31q0 7 3.5 13.5t8 12.5t8 13t3.5 16q0 21 -21 39t-58 18q-33 0 -60 -18t-48 -49.5t-35.5 -74.5t-21.5 -94h191v-24h-193q-3 -30 -3 -61v-17t1 -17h186v-24h-184z" />
    <glyph glyph-name="trademark" unicode="&#x2122;" horiz-adv-x="850" 
d="M331 515h-10q-5 38 -28 64.5t-55 26.5h-31v-339h40v-12h-135v12h40v339h-30q-32 0 -55 -26.5t-28 -64.5h-10v103h302v-103zM777 255h-137v12h42v319h-2l-123 -338h-9l-133 355v-336h36v-12h-85v12h37v339h-35v12h100l106 -283h2l104 283h97v-12h-40v-339h40v-12z" />
    <glyph glyph-name="glyph218" horiz-adv-x="0" 
 />
    </font>
</defs>
</svg>
